/* XPM */
static char *result[] = {
/* columns rows colors chars-per-pixel */
"50 50 194 2 ",
"   c #150E07",
".  c #13110E",
"X  c #1B130B",
"o  c #171410",
"O  c #1C1B15",
"+  c #22160D",
"@  c #25190D",
"#  c #2B1C0E",
"$  c #3F1A0C",
"%  c #251D13",
"&  c #2A1D11",
"*  c #321F10",
"=  c #252114",
"-  c #2B2214",
";  c #24231A",
":  c #2C261A",
">  c #2A291F",
",  c #342513",
"<  c #3B2313",
"1  c #3A2B16",
"2  c #31271A",
"3  c #3F2719",
"4  c #342D1D",
"5  c #3D2D1A",
"6  c #36331D",
"7  c #3C321D",
"8  c #393A1E",
"9  c #2A2A22",
"0  c #312E21",
"q  c #3B2F21",
"w  c #343223",
"e  c #3A3423",
"r  c #353927",
"t  c #3D3B24",
"y  c #3B3729",
"u  c #3D3D2C",
"i  c #393A31",
"p  c #4C0F06",
"a  c #4E1007",
"s  c #47170C",
"d  c #4D140A",
"f  c #461B0D",
"g  c #4D190F",
"h  c #50170E",
"j  c #50190F",
"k  c #461E12",
"l  c #4D1C11",
"z  c #511C11",
"x  c #442315",
"c  c #4D2215",
"v  c #4C2619",
"b  c #422C1B",
"n  c #4C2B1C",
"m  c #512216",
"M  c #532519",
"N  c #522B1D",
"B  c #42311E",
"V  c #4F2F23",
"C  c #582C21",
"Z  c #433522",
"A  c #4C3524",
"S  c #423B25",
"D  c #4A3926",
"F  c #41372C",
"G  c #433C2B",
"H  c #4C3E2B",
"J  c #533224",
"K  c #593225",
"L  c #5C3528",
"P  c #553A2A",
"I  c #5B3C2D",
"U  c #5B3F30",
"Y  c #60362A",
"T  c #3C4025",
"R  c #3F442A",
"E  c #44432D",
"W  c #4B422E",
"Q  c #45492D",
"!  c #52422E",
"~  c #444332",
"^  c #4B4532",
"/  c #464A31",
"(  c #4B4B35",
")  c #4C4739",
"_  c #4D4C3A",
"`  c #534532",
"'  c #5B4332",
"]  c #544935",
"[  c #5A4A36",
"{  c #544D3A",
"}  c #5B4D3A",
"|  c #4B5136",
" . c #4E523A",
".. c #53533C",
"X. c #5A523D",
"o. c #54593E",
"O. c #59583E",
"+. c #604435",
"@. c #644839",
"#. c #63523E",
"$. c #69573F",
"%. c #4B4C41",
"&. c #514C40",
"*. c #555542",
"=. c #5B5641",
"-. c #565A41",
";. c #5B5C44",
":. c #5B5548",
">. c #5D5D4A",
",. c #645542",
"<. c #695543",
"1. c #635A45",
"2. c #6A5B46",
"3. c #625E4A",
"4. c #6C5D4A",
"5. c #705E45",
"6. c #715C49",
"7. c #5C6046",
"8. c #5E6249",
"9. c #5F6151",
"0. c #636047",
"q. c #63644C",
"w. c #6B624D",
"e. c #64684E",
"r. c #73644E",
"t. c #79654F",
"y. c #666551",
"u. c #6A6652",
"i. c #666A51",
"p. c #6B6C54",
"a. c #6D6D59",
"s. c #716553",
"d. c #7A6654",
"f. c #726A55",
"g. c #7C6A54",
"h. c #736D59",
"j. c #7B6E5C",
"k. c #6C7057",
"l. c #6E7259",
"z. c #73745C",
"x. c #7B735E",
"c. c #74785F",
"v. c #757661",
"b. c #7C7762",
"n. c #767961",
"m. c #7B7B64",
"M. c #7E7F68",
"N. c #846A4C",
"B. c #826C54",
"V. c #866F55",
"C. c #877057",
"Z. c #8C7255",
"A. c #85725B",
"S. c #8B745C",
"D. c #90775C",
"F. c #827663",
"G. c #8A7661",
"H. c #837C65",
"J. c #8C7A64",
"K. c #837F69",
"L. c #8A7E69",
"P. c #917C66",
"I. c #927D68",
"U. c #7E8169",
"Y. c #828067",
"T. c #83836C",
"R. c #8B836D",
"E. c #8C886F",
"W. c #938067",
"Q. c #94836E",
"!. c #99856E",
"~. c #868670",
"^. c #8C8671",
"/. c #868872",
"(. c #8C8A74",
"). c #8D8F79",
"_. c #928772",
"`. c #998672",
"'. c #948A75",
"]. c #9A8B75",
"[. c #968E78",
"{. c #9C8E79",
"}. c #9D927D",
"|. c #A08C76",
" X c #A18F7A",
".X c #A3927D",
"XX c #A59681",
"oX c #A99684",
"OX c #A69984",
"+X c #AA9A85",
"@X c #AE9D89",
"#X c #B19F8B",
"$X c #B3A28D",
"%X c #B6A591",
/* pixels */
"d N ) ~ ( ^ ;.7.U.~.T.U.n.l.n.v.c.n.l.e.8.q.( E ~ ~ i O w u = / ( ~ _ 9.) ~ ;.:._ 9.i.i.7.z.z.[ l d ",
"d c g Z _ *.;.7.k.m.T.z.8.;.i.l.v.U.e.e.7.( r 2 _ ;.%.i i ; 9 9.y.>.%.i ;.*.( ~ R %.7.| ..O.n l v s ",
"< 7 n v B ( ;.;.-.u.m.x.l...q.i.k.e.;.i.a.-.r ; ( q.-.) / 8.i.e.i.m.8.] y.8.:.E t Q R Q D B b ! D x ",
"7 b [ X.! D #.x.H.m.R.H.z.m.T.z.;...p.n.b.r.{ 3 V n b H O.h.m.v.q.;.8...>.p.p.f.x.z.x.$.! X.#.} Z Z ",
"t B } w.w.2.@.$.Y.A.H.E.^.}.R.O.| ;.1.] ! ` { ! J J D ] [ ` ! } w.;.7.O.'.[._.^.z.x.5.$.j.f.w.} D W ",
"E t B Q ;.q.p.r.w.J.E.R.Y.Y.x.;.[ } } X.q.p.z.;.q.p.>.q.a.u.1.X.X.[ X.0.H.Y.K.H.g.r.g.H.h.0. .B E E ",
"S t 5 W o.;.l.U.0.1.g.R.}.x.r.#.q.z.c.c.Y.M.z.a.m.c.m.p.n.Y.m.c.c.k.3.2.f.R.`.g.r.0.z.U.e.o.W 7 t T ",
"| R S Z Q / l.c.c.x.w.#.f.g.x.x.U.T.(.^.E.K.n.m.m.Y.n.m.n.T.^.(./.^.x.x.g.t.4.w.x.c.c.c.e.E 7 S R 8 ",
"Q Q T 5 G | e.q.8.0.8.w.d.d.L.^.^.'._._.^.n.M.M.U.R.U.M.m.U.^.^.'.'.T.R.B.g.d.p.7.q.0.i.7.S 5 E T 6 ",
"..S 8 1 1 E 0.k.i.>.` j._.G.B.A.].{.{.^.n.n.T.(.{. X[.(.T.z.M.'.}.`.D.g.H.{.R.3.] 0.p.p...5 7 8 6 4 ",
"z.q.Q 8 1 Z { ( 7.X.1.m.'.`.W.S.Z.I.E.m.M.R.].OX@X@X@X.X'.T.m.Y.W.S.Z.I.'.`._.h.} ;.o.| W < 6 8 8 E ",
"c.p.y.*.e 1 ~ ) W D >.b.Y.Q.}..X!.2.w.m.Q.]..X#X$X$X@X@X X`.L.z.#.g..X.X{.R.R.u.{ Z W ( b 7 R t ( ( ",
"i.p.v.k.R $ Z H D X.{ =.f.{..X+XL.3.s.d.J..X@X@X$X%X#X#XoX!.B.d.a.p.].oX.XR.q.X.{ ! B D x  ...o.| ] ",
"i.z.v.*.R k l x S ;.q.=.H.}.oX}.e.z.R.H.N.D.oX$X%X$X%XoX`.N.A.^.U.i.z.@X}..Xp.=.q...5 s ' k.e.8. .t ",
"p.l.k.i.y.&.a M E ..i.z.'.'..Xb.q.m.T.[.I.S.S. X#X$XoXI.S.Q.'.(.Y.c.;._.{.'.E.i.q./ < a @.m.c.i.0.Q ",
"i.v.i.9.9.] a M ( =.p.0.p.H.Y.e.k.z.Y.'.'.oXP.J.`.`.I.{.{.@XH.{.H.z.i.p.'.h.p.8.a.^ g l m f.m.z.e.;.",
"k.U.v.i.0.M M j A O.p.E ;.b.x.R.Y.z.[.h.+X}.{.I.G.G.I.oX{.+Xl.{.R.z.Y.b.u.j...E z.A l ,.m ' z.z.q.i.",
"n.m.l.l.} d $.I x ( ;.*.q.z.(.}.[.}.}.p.$X_.J.J.|. XZ.C.R.].R.{.'.'.m.u.>.q.>.;.3.x +.z.N M e.q.;.q.",
"k.k.k.i.I l i.f.c `  .=.q.z.'.^.T.'.OX}.{.S.G.'.+XXXQ.g.A.L.XX_.^.^.h.E f.m.v.l.=.x 1.7.D d ] | ;.;.",
"-.8.;.>.c K i.i.D D ( =.u.p.i.z.n.^.{.V.C. X}.].R.L._.].Q.g.A.`.'.i.8.O.q.h.*._ x U i.i.w.c n ( ..7.",
"u  .8.:.d #.l.;.6 , e ;.p.F.{ u w { V.V.F.@X$XXXb.H._.oXQ.H.J.B.=.0 ^ W y.i.Q 4 x u.p.l.M.C m ..-.8.",
"; 9 | W g } 7.;.R b < >.z.u.~ E G ` p.(.i.H.}.Y.z.b.H.'.h.H.E...` F ) u >...} s ' z.z.p.l.P g >.8.;.",
"0 > ~ n l ;.e.c.q.W $ / z.;.e 4.{ v.3.M.q...h.p.=.=.z.m.{ i.q...v.{ 2.G >.u P c u.m.z.z.k.W g X.l.i.",
"..O.) k m 8.;.p.Q u W B d.,.[ j.b.u.u &./ G ) _ r w ..;.w ( u O.a.K.s.! ` e 1 W h.n.z.z.l.` g #.z.k.",
"8.e.q.N m O.;.o.e -.i.Z ' 1.3.i.Y.>.i y G *.^ w ~ e u / G e G 3.u.K.3.3.1.B b E i.z.l.c.p.! h <.m.k.",
"p.l.p.N m ;. .t w 1.X.D ` p.q.f.m.z.:.E u.v.b.( y.=.h.v.y... .m.m.;...h.Y.Z H H ( p.l.n.e.[ h 4.n.k.",
"l.l.z.K M q.( E * D 1.i.! X.q.i.R.XX_ u ) b.}.O.a.;.(.(.y.G p.m.OXH.0._.w.P m.G $ J q.n.8.[ h 6.T.k.",
"M.m.n.' m ;.` c c W q.8.` ! >.b.f.z.8.&.4 f.OXx.m.a.XX[.) =.>.3.(.}.(.m.A f.b.w B c M #.7.W g ,.U.m.",
"n.p.n.2.d c m I z.q.6 / ) ` 1.u.3._ h.u.i e.oX[.m.K.$XT...h.&.>.h.z.k.1.Z q./ o./ S n m J J g ;.i.l.",
"i.i.m.' a M 1.m.(.T.;.o...H H >.y.=.u.p.%...'.{.m.(.OXh.*.y.;.;.*.z.q.P ]  ./ 7.Q T  .} v a l 1.k.i.",
"i.y.! l a P c.U./.(.U.i.E ^ 5 e { *.h.a.:.> H.`.z.XX[.%.9.m.q.) u ) =.W ..7.7.R / o.0.7.X.g a K 3.y.",
"` M M Z b v 0.c./.U.m.z./ { 7 : 0 u y.(.:.. ~ [.u.OXh.O { T.;.y e e D (  .;.7.o.7.i.i.e.X.g P v l P ",
"a h K A v d J [ #.' ` [ S ^ e < & @ { R.3.% - s.^ b.H % &.L.^ e 4 1 5 G Z I P P P @.' I N d J J l p ",
"z z z z j h d j g l g f b D B , @ + q d.d.1 5 H 2 ` Z 5 4.s.5 & # < B b < s j j l g g h a j g g z z ",
"w.f.h.f.3.I z <.O.E W E q.q.( 6 + : e h.XX) G >.e q.^ { ^.y.) ; X 5 p.p.{ G 3.q.w.;.X.P g #.1.1.q.q.",
"k.z.n.z.p.3.m +.O.t 8 ( ^.z...;   5 y u.^.>.{ >.G y.) a.^.*._ 0 X S b.H.i._ l.n.n.k...c I n.p.k.k.i.",
"q.i.z.z.e.p.[ g W  .E *.'.h.3.o   # ^ >.a.^._ 8.{ u.3.H.3.q.~ % X *.m.M.y.( v././.z.J M f.v.0.v.p.-.",
"7.;.i.q.7.8.7.J x .. ._ p.K.z.w o % P ) { K.l.z.8.n.m.b.p.;.: + % p.(.z.;.;.m.).^.2.j 2.^.p.-.p.-.7.",
";.-.h.z.k.q.e./ c J u.;.G f.T.;.) y D S w :...m.*.l.;.y.~ _ y ` G T.[.~ -.c.Y.(.p.M @.T.z.8...;.7.7.",
"i.q.z.b.k.q.z.o.} z U z.-.) [.q.b.u F } &.=.~ y.u :.) &.&.>.G F.&.[.j.9 ..l.U.p.N K z.n.e.;.7.7.7.8.",
";.q.l.l...-.i.;.i.,.l +.z.( x.x.[._ w Z ,.s.m.~.9.M.9.y...^ [ [.>.}.) ( O.p.w.M N f.l.q.8.8.e.7.p.z.",
"~  .7.8.o.o.7.;.a.b.4.C L ! d.F.h.3.r ^ F &.H.~.m.^.f.&._ e w.w.z.'./ e.z.<.c I x.^.c.( 8.q.8.;.k.p.",
"E t ( 8.i.8.o.8.p.U.T.b.Y c w.j.~ z.~ Z 1 1.3.j.3.v.4.q.G Z >.) {.R.;.1.I l n y.M./.l.*.e.e.e.k.U.k.",
"o.| -.8.e.;.;.k.z.m.T./.v.^ ! H y ( 3.{ 4 H p.L.f.K.p.) 2 q { *.h.F.' N N P ~ _ p.m.n.z.p.e.k.c.l.l.",
";.7.e.i.k.7.o.e.l.l.U.U.z./ ( e , 5 H ..*.D S { (  .{ ^ 5 y ) W Z A v P 0.;.~ ~ 8.z.m.n.i.e.q.7.e.l.",
";.q.e.p.e.7.7.p.l.l./.m.z.q.E e - 0 Z 5 5 B D X.=.} ,.B 5 , 1 , , t 0.O.8.>./ ..l.m.c.c.q.o.7.e.k.l.",
"8.e.p.q.k.k.e.l.c.U./.c.p.z.0._ 4 R v.W S ^ Z b Z B B B b ` 2.w / n.m.7.8.;.Q  .q.n.k.8.7.o.e.x.z.z.",
"q.8.e.8.k.k.k.z.U.U.U.z.k.q.e.p.( e z.z.^ >.} D z.f.H S t u.f.~ z.T.n.q.p.e.|  .;.e.8.7.e.7.p.x.n.l.",
"l.i.e.i.l.i.k.U.U.l.z.k.i.7.i.8.8.Q Q e.| o.q.B 4.} Z q.R >.y.k.z.k.z.i.n.l.-.8.7./ o.7.7.7.k.z.z.l.",
"c.z.k.l.z.e.k.c.c.l.U.c.l.i.i.8.7.8.e.i.0.i.M.' v m #.U.8.>.M.T.v.7.8.k.U.z.;.o.-. .e.8./  .8.l.l.z."
};
