/* XPM */
static char *result[] = {
/* columns rows colors chars-per-pixel */
"50 50 65 1 ",
"  c #0E0E09",
". c #0F1107",
"X c #0F100A",
"o c #14150C",
"O c #17190C",
"+ c #1A1C0E",
"@ c #1C1E11",
"# c #1E2112",
"$ c #222515",
"% c #262917",
"& c #282B17",
"* c #242619",
"= c #262A19",
"- c #2A2D1A",
"; c #2E311D",
": c #31341E",
"> c #2D2F20",
", c #2F3121",
"< c #333621",
"1 c #363A22",
"2 c #3A3D25",
"3 c #353628",
"4 c #363828",
"5 c #3B3D2B",
"6 c #3C4127",
"7 c #3E4329",
"8 c #41452B",
"9 c #444A2D",
"0 c #494C2F",
"q c #444632",
"w c #464C31",
"e c #494E31",
"r c #4A4D38",
"t c #475133",
"y c #4C5234",
"u c #4E5638",
"i c #4F5839",
"p c #515636",
"a c #515837",
"s c #52563B",
"d c #545A3B",
"f c #595E3D",
"g c #57603E",
"h c #59613E",
"j c #535540",
"k c #5A5E42",
"l c #5D6244",
"z c #5F6944",
"x c #5F634A",
"c c #616447",
"v c #62664A",
"b c #65694B",
"n c #696E4E",
"m c #6B734E",
"M c #6A6F50",
"N c #6E7353",
"B c #707656",
"V c #757B5A",
"C c #797E5B",
"Z c #7C845C",
"A c #7F8660",
"S c #7F8861",
"D c #828B63",
"F c #889067",
"G c #8B946A",
/* pixels */
"827q<-72674#;14w7,4630q268250230747<=;<<84,:12e056",
"78bbs,14zNl,=#txv7-=0NMp,68cnf32<zml<$$rcc8-=rmmy>",
"<wVBb4=7SGZ7#=jNBs=$kDCk<>qBVn2=4ZFAq$=sNBs>*kDCc>",
"=,dxq,*1xSx7=>7xj8=$5Mvq-*;sxr<%,kSx8-=5xk8,=8bbq>",
"-o*8o=1$O7##6# 6*@-&X>,o-&o$8o-<@oqo>7- 4>#3: ,3O-",
"-3qre,4<t7j,<=66r5:-38q5--,qqr:3<e7j<2<25r85155r8-",
"7<kCy:6,tBj-7,7Zb,:;-kc5=<,sCy18,uBk,712Mb188<cb5>",
"928f2686<j767,;is,;&*8q>%2<5s2897<i716<-rr285-8r:,",
"y7,,;677676666;;:2:&%=<&:86=,;70y12<:12;<:602;;:,2",
"ww2;766t7766766$:8:-;-%:186:&668gy27<281-:86:::;28",
"t77t777t776661;<2:;;:::112267027a999::2:1221226688",
"kiiii777776661;<::&::12858869y7096671:<121::2::8qy",
"67777,<<;6;=;==$$$#&&::86;6611::1;-;-=%=**$*;&;:9w",
"776====1==;=,;=$&%&&;:676;-=**##<$-;%-:-$&&&&&;:7w",
"ki766;17666;7t6;82268yahit7;;1;:7:1219e2;6628880lm",
"zi764;,166;67i7762669988tt71;:-:1;<167062621:826wz",
"git71;;;;6687ay08688098000961;-;;&:666it66792666pc",
"iii771;;;1179aay82000pq90996161<;&;267ig0970p9980f",
"ggg766::11119aat86ypppy80eyy611<62:1117iyt0yydaypf",
"igit7:;166167tyy08088d010ye076::772666t9yaya0eha0p",
"gZt66:1677766t99y00988086igt776679976:960gaat0ta00",
"ghi211167t7:1976820p0ey07tg7766799tt::667tyyttya08",
"gt771:2tt77&1661:8ye2e889t777766gg76;:67669y08p800",
"7t77666t7;:;:26:;:808280t7767767gt6:::172270t96600",
"776776666;;:;11;;;6786800662776797616;772:260868y0",
"&;%%&%%&;&###%$$##%&;;&&&&&%%%$&;&%####%$$$$&;&;;-",
"ta96t67tt76:;;1;:;18y061;7t217670a971;;:;2:2208862",
"tt616617aa7111::1;67y91;:971:1770dp8;;;;:::28082::",
"26:;;:;69tt7771;;;6909:;;1:;&;:180e8::2:;;:2888:;;",
";2626::1669t9712:28261:;;;:2166788268661111622:;;-",
";:666::11661297768961:1:;;18866662:::286686861;;:-",
":62686116776169997982111;696877768:22268q82881:::-",
"2666996666961:60e88:6111-8986806066868:6yy6:6::::&",
"66:169229t91:696006,2681108<:6880882::666686:::61&",
"1::19116966;:112682:26:2796:;6:6p082:66:;22:::::::",
"1119t11662:&&::262::2626112127169:86::::::::::881;",
"9669t66::;;&&;:2:2:::128677667676:26:&:;1::;:::621",
"&::;;&%%%##+%$&&$$&&%&:21;::-;;;;&&&&&%&&##&&&&:2;",
";&%$%#$&+#$##%&&-&--&;286:;&###=;#&&#&;&$&&&-&:221",
"91;;:&;;&&;;:61:6:2228pfht7;::;::;:::68::6126280pp",
"71;;;===&&;;:69611228680ii6:;;;=;&;:12886211122680",
"761;;=%#&&:::ti9:6868220g76:;;==&&;:22008122122280",
"77611;=$&$;::tit870yy868t861;:==$&&:12008628866268",
"777111;=:&&;:9a9999y00880877;;6=;:&&;1608866880880",
"87776=,66;;;:99yw9927y0709866,,=21;&:386068626006q",
"7g7866666::;;tt9yw9879078ya836661221<<826086688085",
"-:&#@+#=@+#O.&&$=*#*%$==#-;$@@@#$#$#+o*@+$$+$&$&-#",
"-7$#6#@7;O6-.11O,7#,1+;7#&7#@7##r:+6* 3:o:2+;:#&q$",
"=7=#6##7>+,>o,4#>4#,6#>7>>4=#7*#5>+,&O>>O>>#>3#&5>",
"%6%#<##3##>#O>,##>#>,#*6#*4#*6=*3&+>*O>-O*>@&3$&5&"
};
