/* XPM */
static char *result[] = {
/* columns rows colors chars-per-pixel */
"50 50 123 2 ",
"   c #050502",
".  c #090604",
"X  c #070803",
"o  c #0C0B05",
"O  c #0E0D08",
"+  c #120E07",
"@  c #120F08",
"#  c #0E1206",
"$  c #0F1009",
"%  c #131306",
"&  c #181407",
"*  c #14130A",
"=  c #1B140B",
"-  c #16190A",
";  c #1B1B0D",
":  c #181610",
">  c #1C1C11",
",  c #20170C",
"<  c #231A0E",
"1  c #291D0E",
"2  c #241D11",
"3  c #291E11",
"4  c #1C210D",
"5  c #1E2113",
"6  c #23230E",
"7  c #2C290E",
"8  c #232314",
"9  c #2C2214",
"0  c #252A13",
"q  c #2B2A16",
"w  c #252519",
"e  c #2C2619",
"r  c #26291A",
"t  c #2D2C1B",
"y  c #322515",
"u  c #352916",
"i  c #392A16",
"p  c #322619",
"a  c #342B1B",
"s  c #3B2D1B",
"d  c #2B3317",
"f  c #2C321A",
"g  c #343213",
"h  c #393511",
"j  c #33321D",
"k  c #3D311E",
"l  c #30381B",
"z  c #3D381F",
"x  c #342E21",
"c  c #3B2F21",
"v  c #2F3120",
"b  c #363522",
"n  c #3C3322",
"m  c #363A22",
"M  c #3B3A23",
"N  c #3E3C2A",
"B  c #402F1A",
"V  c #433F14",
"C  c #42321D",
"Z  c #49371E",
"A  c #4C391F",
"S  c #443522",
"D  c #483722",
"F  c #443A25",
"G  c #4B3A24",
"H  c #413628",
"J  c #443C2A",
"K  c #4C3C2A",
"L  c #513D24",
"P  c #503F2B",
"I  c #384024",
"U  c #3E402A",
"Y  c #4A4514",
"T  c #534C14",
"R  c #544F1B",
"E  c #585017",
"W  c #575118",
"Q  c #5D5619",
"!  c #615C1A",
"~  c #67611B",
"^  c #6B641C",
"/  c #6F6A1E",
"(  c #70671D",
")  c #726B1E",
"_  c #444124",
"`  c #45442C",
"'  c #4A452C",
"]  c #46492E",
"[  c #564227",
"{  c #554F23",
"}  c #54422B",
"|  c #5A462D",
" . c #554B2F",
".. c #5F492F",
"X. c #565126",
"o. c #5A5423",
"O. c #5F5A25",
"+. c #4A4535",
"@. c #4D4A33",
"#. c #4A473E",
"$. c #4C4939",
"%. c #564631",
"&. c #584731",
"*. c #524C33",
"=. c #5C4A32",
"-. c #545235",
";. c #5A563B",
":. c #635D23",
">. c #614C30",
",. c #60583E",
"<. c #676021",
"1. c #6F6A24",
"2. c #746D23",
"3. c #777027",
"4. c #7A7422",
"5. c #7F7822",
"6. c #4E4B42",
"7. c #5E5C44",
"8. c #646142",
"9. c #807622",
"0. c #837B24",
"q. c #8A8227",
"w. c #938A29",
/* pixels */
"%.P J K &.%.P K P %.K P | G G P S G S K P K P P P P K J K &.%.P G K %.K P | K G K D G S K P P K P s ",
"} D G D K G D c D D H S P C B D C S s c G G G S Z Z G D D G K K S G G S G P C s S s S a s J G G D 9 ",
"..L S 9 = = = = * = = = s S S D c B 3 = 2 a D G L L L S 9 = 2 a S S F D D p = @ = @ @ @ @ 2 a G G i ",
"&.D u     . o o X = @ o : D S D S y . . @ O e G L K D 3     @ = u S D K H + . o O o .   . @ @ H G i ",
"..G 9 * : O o % & ; - - e G S D 3 @ = r r w 2 K G L S @ : t - # - i D K n * # = r 8 5 8 5 w r K D a ",
"| G 9 t t O o o 6 _ m N =.S S y + 3 _ ] M b 8 K D L C 2 $.+.> # & ; s D G S - w ' _ G  .j j n K S p ",
"| D 1 & < % - 4 - 0 f } } S p * = a -.-.] m H P D L Z 2 w j 8 6 0 - ; i S K i 2 ` n n *.M I M J G p ",
"| A 1 o o o - - # j } C S p O o = 2 p r 5 F } G Z G Z u < % # 0 0 % 4 ; y S D a 3 2 2 t ; - = D G y ",
"[ C < o O + % & 2 %.G i p @ = = 2 8 > o p K G S Z Z Z i B , + ; r ; ; 4 & i C D i * = = X : ; D D y ",
"G Z 1 ; r 0 < j %.G s 3 * e a 9 8 n 9 c K s S s C Z C i B B 7 6 ] -.' l * ; e C S y > < O +.#.F B y ",
"D B , * ; ; p K S C 2 o 5 *.K & + % c J c a s B s s s i B s B 1 e z k 8 - t b p s i 3 +   b J F B 1 ",
"S s 3 % * p P B c 9 . O t n M ; % e G c s i s C s i s y s s Z B < O o O ; b v : 9 s y a @ - e S B 1 ",
"S u p y c D D s 3 .   # > # O o e C s i 2 < y B B i a 2 , 3 s C a =   . * ; %   @ 9 y B i s C s B 3 ",
"c p p a s a B 9 o 2 j M m 0 t x s y i = = 0 9 C i y p O * e 3 B s a , , j l r t b ; 3 s i C C C s 3 ",
"c p p a p u 3 . . t J b d t ` S i 3 = . 2 j 9 s i p 9 * t ] J y i i i , 8 0 j ' ;.t = 9 y u C i u < ",
"c a y p p 3 . + O > > ; 4 a S p 9 @ o o > j e s u a 9 + r m q % < u s 9 % # 2 9 ` 0 4 ; 1 y i i u < ",
"s y 9 p <     o # # - ; x n p 3 @ o o X # $ - k i y 9 o & 4 X X o ; i y 1 & . o 2 > = # O 1 i i i 1 ",
"C 9 9 < o o e j I z 5 x s 9 3 @ = n l q 5 $ > S i i 3 @ t 0 4 U M j 9 9 3 9 @ * N @.' j 4 & 1 i B 3 ",
"S y 3 + O ; D h F F k a e 2 + @ < t 0 2 ; $ = u 9 y 1 O > > 5 N t a 9 ; 3 y 3 = e F F u 8 > : a y , ",
"B u < O 8 - r t q z a 9 3 + o * O O * = : * = ; < ; < = - ; > > * O & ; * 9 y 2 < e 8 0 e t e p y 1 ",
"C y < o * - % & t u y 3 =   o o . 6 Y Y T ! ^ 4.~ E Q E W W <.2.7   . * o 9 9 1 9 = * 2 > = : p 3 , ",
"c 9 3 = = 0 f j s y 1 < = + < j : * T T ! ^ 9.q.5.~ ^ ! ~ ~ ) 2.%   + O @ p y 9 y 9 ; w w t p p 3 , ",
"a 3 2 < 3 9 s u y 1 < 1 < < e s p @ 7 ! ^ 4.0.0.q.4.) ^ 2.5.0.h . 1 3 2 e 3 3 3 9 y 9 2 w x e 3 3 , ",
"a 3 < 2 3 3 1 1 1 1 1 1 < < 9 y i ; @ Y ( q.w.4.;.@.^ / ^ 0.~ + + y 9 1 3 < 1 1 9 i 9 1 9 3 3 3 3 , ",
"3 2 , , 2 , = , , < , < , = = < 3 < * ; 1.q.w.<.6.#.o.) ( 4.q . & < < < < , , , , 3 , 2 , , , , 3 = ",
"H H H S H H S S Z C A A Z G D Z D S n = V 5.w.3.$.@.2.4.) V + y S C B D D Z A A H S H K K H J K G p ",
"P D S H P H S c B B A D Z A A G G S S 9 = ~ 3.<.@.` O.4.~ * , S B B B Z A A L L G G D D J D P G G p ",
">.G S C p 3 2 , < < 9 9 C Z A A G S S 9 o g 4.o.X.{ o.^ h . 3 s B h B L D B 1 1 3 3 3 3 3 3 n K D p ",
">.D a O . @ * O   # o o = C A D G c =     O :.1.0.4.! R *   X : u C Z G k @   . . . .   . X * D B u ",
"P D a - 2 * # * ; 5 # > w G D D B = = w > O g 5.0.9.) q   * # # & k C Z s o # - w 2 > t t 8 2 H C u ",
"[ L u x N ; # % g _ m J +.D G s & < +.` m w # Y 0.0.Y . * t > # - < s S C < & w _ _ ' 8.] b x K D y ",
"P L u ; r 5 0 4 4 d t J S C s = + j 7.-.] b : < ) / ; . O t 0 f d - < C C i 2 w %.n F 8.@.J c G D 3 ",
"[ L u o O O r 5 - d _ [ S a = . = 8 j r ; t K : V V + y = * % d d - 4 6 C S s e 2 2 8 a 8 - : J D y ",
"[ L y + - ; 0 0 - n G L s & o @ : 5 8 o w } L y : @ 3 C s & # 8 f 5 0 4 1 s k S 2 * > > o > : G G y ",
"| G y ; m m m H @.D s s 2 = = 2 < a a w K S D Z , & B B C s 8 j *.8.-.a o ; u S s 9 9 t O +.+.K D i ",
"| D 9 & 0 q j S S s y = : H a + + O e K J D D G s i D B s Z i 2 j ' ] < * w e a B B 9 %   v N G A p ",
"L Z y o & t ' s i p + o t b e - @ 2 F B D G G C C C Z B D B s i = % % o = b 8 = y s s 3 . O 2 } B y ",
"K B s p 9 S S y e *   $ 5 % X . 2 L D S i u C s B C B a y a i C 9 O   . # ; % o & y B D a 9 F D B 3 ",
"G n i B s s C 1 @ > a M M 0 t t c s S 3 * > 3 B s C s = = 2 9 C y 9 & = f l r M b 2 a B C C C s B 3 ",
"K s a s u y 9 +   e M b l j J n a y 2 o - p 0 S s s a * w ` p 9 1 9 e = ; r g ,.7.t ; u s s C C B 3 ",
"K s i i i 1 o   o > 2 ; 4 e n u y 2 o   - j a n a s p @ t m 8 O = 9 i 9 * % < x $.r 4 < p i i C i 2 ",
"J a a C 1 +   o $ o - 4 f t 3 y = X o o o * : s i i p o ; 4 X   o 2 u s 9 O . : w 5 - O * 9 a u y 1 ",
"S a s p + . t M I z 4 j S 3 2 = * e j d 4 O : i p u p & f 0 % M n t 3 i y 1 + 2 @.*.@.t ; * y y y , ",
"C p 9 @ o ; F z F _ j a 9 3 @ @ ; y g q t ; ; e 3 a 9 O 0 0 8 *.z z 9 < 3 9 < @ b ` F q 6 & , y 3 , ",
"H y < + ; % r q t n c 3 3 @ o = p 9 e j b e : p 3 i 3 @ > b - f j l u & : 3 3 , 3 b e 2 2 0 2 3 1 = ",
"c 3 , . # % & - w c 3 3 , . X + * : w w > O : 3 3 a 3 . O ; ; - 4 r 0 O o 3 3 < 2 @ : > ; * O x 3 = ",
"c 3 3 @ & 4 a t a 3 3 3 & + 8 b N $.6.v N N n p 9 9 < . = t e c m j ; . o p 2 3 3 & 2 v 2 v x p 1 = ",
"p 3 3 < 2 8 a e 3 9 3 2 2 = 9 n x n v 2 N J H 3 3 3 9 : : x e x 0 e 2 = 2 p < 3 3 < = : 2 c x 3 1 = ",
"c 3 3 3 3 3 3 3 3 1 , < 3 , 1 3 , , , y 3 3 3 3 y y 3 3 3 p 9 3 3 3 3 3 3 3 , , < , , , 9 9 3 3 3 , ",
"y < : , 2 : : : = = @ = , @ = @ + = + = = = , , , , , , , , = = = = = @ = = @ = = + + + = = = = = = "
};
