/* XPM */
static char *result[] = {
/* columns rows colors chars-per-pixel */
"50 50 118 2 ",
"   c #0E0C07",
".  c #0F0C08",
"X  c #130F08",
"o  c #14110B",
"O  c #1B120D",
"+  c #1D1B14",
"@  c #1E1F19",
"#  c #21140D",
"$  c #211A0F",
"%  c #231E14",
"&  c #371B15",
"*  c #3C1D16",
"=  c #1F201A",
"-  c #272217",
";  c #23241D",
":  c #2A261C",
">  c #26291F",
",  c #2A2A1F",
"<  c #372519",
"1  c #332C1E",
"2  c #262621",
"3  c #272821",
"4  c #2B2C25",
"5  c #2E2F28",
"6  c #352E20",
"7  c #2E3126",
"8  c #2F3129",
"9  c #333025",
"0  c #3B3324",
"q  c #32342C",
"w  c #3B3529",
"e  c #36392E",
"r  c #3B3A2E",
"t  c #363730",
"y  c #3C3730",
"u  c #373930",
"i  c #3A3C33",
"p  c #4C2620",
"a  c #443525",
"s  c #433B2B",
"d  c #4A3E2C",
"f  c #413C32",
"g  c #483C33",
"h  c #3E4136",
"j  c #3F4138",
"k  c #4B412D",
"l  c #414437",
"z  c #4C4331",
"x  c #43453A",
"c  c #4B4439",
"v  c #46493D",
"b  c #494B3F",
"n  c #564532",
"m  c #544A36",
"M  c #594C35",
"N  c #594139",
"B  c #544C3B",
"V  c #594F3E",
"C  c #4A503F",
"Z  c #5E533D",
"A  c #62433B",
"S  c #604C39",
"D  c #63563E",
"F  c #64583E",
"G  c #4B4D42",
"H  c #554F42",
"J  c #4D5144",
"K  c #515446",
"L  c #5D5544",
"P  c #515845",
"I  c #535549",
"U  c #5A5749",
"Y  c #56594B",
"T  c #595C4E",
"R  c #5B5D50",
"E  c #625543",
"W  c #655944",
"Q  c #695B43",
"!  c #615B4B",
"~  c #6A5F49",
"^  c #5E6253",
"/  c #66604F",
"(  c #72654B",
")  c #796A4F",
"_  c #616556",
"`  c #6B6755",
"'  c #636956",
"]  c #65695A",
"[  c #6B6E5F",
"{  c #7B6E52",
"}  c #726F5B",
"|  c #6C735F",
" . c #7E7055",
".. c #6D6F62",
"X. c #6E7162",
"o. c #727465",
"O. c #825F50",
"+. c #956F5F",
"@. c #837558",
"#. c #92735B",
"$. c #8D7F62",
"%. c #9A7861",
"&. c #8D8269",
"*. c #948564",
"=. c #988264",
"-. c #93866A",
";. c #95896F",
":. c #9F8869",
">. c #B28A74",
",. c #AD9A74",
"<. c #AD9D7C",
"1. c #BA967E",
"2. c #B29D78",
"3. c #B48C80",
"4. c #CCA39B",
"5. c #D9AE9F",
"6. c #CDB094",
"7. c #E4BDB0",
/* pixels */
"q l x j 4 h j e J J ] X.C G e v P j 3 j j i t t 4 5 x x j 4 i j u P J ] X.C C e j Y h 4 j j j 8 8 8 ",
"; 4 e i = q 7 ; e j u C q e h j G Y u e j i i i 2 2 4 u i = q 8 2 u h u v 8 e h j J Y e 8 h j j i 3 ",
"K i 5 j i x J x j P i 7 q > 3 8 8 G x v G G j j G J t 8 j i x J x j K u q e = 4 q 8 G j G G G i G G ",
"J i q i e e q q u j ^ e h e 7 e h e q u u i 8 t t G i q h q e t 8 i x ^ q h u 7 e h e q t t t 8 8 q ",
"q h q h q 8 i x q u J u u h h h j G o.X.Y R G q 3 8 h q e 8 8 h j q u J i i i i h h G X.X.Y Y G t = ",
"x h q j l q h I G P G h h q j J P K X.o.^ ..] Y u h x 8 j v 8 h K G P G i j 8 G P P K X.o.^ ....Y q ",
"e v u e u h 3 e u G u 2 7 3 8 e u 8 i x e u i u q u v h e u h 3 u i G u 2 4 3 q q u 7 h x q t i t t ",
"7 u v ; 2 i q 4 h e j u j j G G J x = 3 i G G I x 8 e v ; = h e 4 i u j u j j G v P j = 3 i J G I G ",
"J v J e 4 J x 4 i i G q i G j u j j 2 4 i G u x T J v G e 7 J j 4 i i G q i G i i x v 2 5 i v t j R ",
"q l i x 3 t i 8 x i i 5 8 G G 8 i G 4 t q q t 3 4 8 v h x 4 u i 5 x i i 5 t G G q u v 4 q u q q 3 3 ",
"u j i x q G _ i G _ Y G t G i 5 i ] I 2 t x R Y 3 q j i x 8 x ^ i G ^ Y G t G i q i ] J 2 t b T I 2 ",
"q P ^ Y t G I q t J G i T ] J G i G P i j j I J q 8 I ^ Y t G I q i J G i T _ J x i G I u x j I G t ",
"h h v Y b q G i t G Y i i x i x 2 4 G 8 3 3 x R J i i G P G 8 G j t G I u i x i x 2 4 G 8 3 3 x R I ",
"8 7 u R R i G I i G I T G i q G G 2 G J t 2 4 G i 8 8 i ^ R i G I x G K T J i t G x 3 G J e 2 4 G i ",
"4 8 8 q q 8 2 q 5 5 4 t J t = i i 8 G G G i @ 2 4 4 4 5 5 t 4 2 q 8 4 3 u J 8 = i i 8 G J G i = 2 2 ",
"8 i x i R G 4 u x i t 4 i x @ 8 i 4 u t j i j 3 = 8 t G i R G 4 u x j t 4 u G @ 5 i 4 i u j i j 2 @ ",
"2 G I G _ Y 8 q u v h 8 4 G 4 h j @ 3 3 8 i j 4 = 2 G I G ^ Y t 8 i x h 8 3 x 8 i j = 3 3 q u x 4 @ ",
"2 t J t i G i 4 e q 2 4 t 8 = q i 2 = = 3 4 4 = 3 4 q J t i G t 3 u u 3 3 u 8 = q i 2 = = 3 4 4 @ 2 ",
"G 5 t 4 2 q j 3 h b u J ^ e 3 i R P I j i ; = i J J 8 u 4 2 t i 3 j G u J ^ u 3 i T Y K j h = = i G ",
"_ G i G i 4 u 3 8 x 8 u h G h 4 8 8 G x i = 8 G J ^ G i G i 4 t 4 8 x 8 i j J h 3 8 8 G x i = 8 G J ",
"G t 5 G v 7 7 7 q K I ^ P Y J J K 4 3 v q 3 4 8 q b t 8 G G 5 4 7 q K I ^ K P J J K 7 7 h e 3 3 q t ",
"t i q q h 8 3 ; 4 u G h v u u j J u h C 3 = u 8 5 u i q t t 8 2 > 3 u G h v u e j J e h v 7 = u 5 5 ",
"j _ I q j C J j u e u 8 v 8 7 8 q 3 h T P 8 8 i h j ] P q j J J v u u u 8 G 8 7 8 q 7 e T P 8 8 i b ",
"q J G 2 > 7 q h 7 v 8 = 8 J v h J v C Y ] G h ^ J q J v ; 3 7 q h 7 j 7 = 8 P h h J v C T ' G h ^ I ",
"5 u i 5 G K e u q e x G P P u e e r 3 e h i 2 j u 7 u j 5 G J q u q u b G I P h e e e 3 e h u 2 h i ",
"q l v j 8 h h i P G ] X.P J e v P l 3 i i u q t 5 5 x x j 8 h j u K G ] X.J J u v P l 3 i j u t q 4 ",
"; 4 u i = q 8 ; e j u v 8 u h v G Y u q l j i i 2 ; 4 t i ; q 8 2 q j u v 8 e h x b Y u q j i j i 2 ",
"K t 5 j i x J v j K i 9 q 2 3 q 8 G x b G b i x v K u 5 h i v J x l K i 8 e > 3 q 8 v x b J G i x x ",
"J j 7 e e e q q u x T q h q 3 q h q 8 i e u 8 q e J j q h q e q q y l R q l q 4 e h q q i u u 8 q t ",
"q h e h q 8 i j q x ` ! L L B r e v o.X.Y R G q ; 7 j q e q 7 h l q G } ` ! ! H h h b | X.Y T G q 2 ",
"j h q x x q j J [ -.@.@. .( ( W B l X.o.^ [ ] T e l x q x x q h K o.;.@.@.{ ( ( F L b o.o.^ X.] I t ",
"i v r e e j 3 x $.&.) k w 9 k E Z w q x e e j u q u v e e e h > G -.$.( z 0 6 z D D s e x e u i u t ",
"7 e v ; 2 i q H -.{ : + k d % z ~ B + 2 u G G I j 5 i G = 2 i q J -.{ : + d d % n ~ B @ 2 u G G Y G ",
"J v J q 5 G i G @.E X F ,.,.D r ~ g + 5 i G i f T G j G t 5 J j K @.E O Q 2.,.F f ~ c % 5 i v t f R ",
"q l i x 4 y i c ) z . W <.<.Q g ! 0 @ q q q q 4 3 8 j j G 3 t i H ) n & %.6.6.#.N W 0 2 q q q q 4 2 ",
"e j i x 5 G ^ U ( m . - Z n 0 i E 6 5 3 u G R Y 3 e h i j 8 G ^ R ( S p 4.5.7.3.A E a l 4 t G R Y 2 ",
"e K ^ P u G K G Q s   d ( ) w r E 0 u u x h I J q 8 K ^ Y u G J H Q d * +.>.1.O.g E s v y x j I J t ",
"i h G P G 8 x G Z a X 1 *.*.% f U 1 q q 3 3 x R J h i G P G 8 x H L a # a :.=.< g E 0 j 5 2 3 x T K ",
"8 7 u ^ T i G K W s X $ Z M $ c V 1 u J e ; 4 G i 8 8 i ^ T i G T W d X $ S M $ c L 6 l J u ; 4 J i ",
"7 8 8 8 t 4 2 i L B s c b B c U V 6 t J G i @ ; 3 4 8 8 8 t 8 2 g L B r c B H c ! V 0 l G G i = ; 3 ",
"5 t G y R G 4 l m m B Z V L B d s 1 2 i h i j 2 ; 5 i G i R G 4 x M m B V V L B g s 6 q t j i l ; = ",
"2 G I G _ Y q 5 , , ; % + ; + ; ; o = 3 q i x 4 @ 2 x I G _ Y q q q q 6 4 ; 9 3 4 6 + 2 4 8 i x 5 = ",
"4 q J t i G i 3 q q ; 3 q 5 @ 8 u 2 = = 3 4 4 = 2 4 t G t i G u 4 q q 2 4 q 8 = q y 2 @ ; 2 4 4 = 3 ",
"G 5 t 4 ; q j 3 h b q J ^ u 4 i R P J h i = = u J G 5 t 4 2 q x 3 j G e G / u 3 i R Y J i i @ @ e J ",
"] G t G i 4 u 4 q x 8 e h G i 4 8 8 b v i @ 5 G J ^ G i J i 4 q 4 q x q u h J j 7 8 8 v b i = 8 C J ",
"G t 5 G b 8 4 7 t I P ^ P Y G J J 7 7 v q 2 4 q t v q 5 v v 8 5 7 q K I ^ P P G J J 8 7 x q 3 4 q q ",
"u i 5 t u 8 2 2 3 i J h v u e x J u i G 4 @ u q 5 i i q e i q > ; 4 u G h v u e h J u j G 4 @ u 7 7 ",
"i ] I q h J J x u u r 8 b q 7 8 q 4 i T I q 8 i x i ] Y q h J J x u u r q v q 7 8 q 4 u T I 8 8 h v ",
"t J G 2 ; 7 q h 7 x q @ 8 J l h C v C P ' C h ^ C 7 J v > > 7 q i 8 x q @ 8 J v h C C C Y ' v h T P ",
"q q i 4 G I 7 e 8 q j x K P h q 7 h = h h h > h h 7 e j 4 J K 8 e 8 q l j I P i q 7 e > h h h > l h "
};
