/* XPM */
static char *_2434c3f5cae472ed9b41fda9cac7595JLReZCbMWcQYgkb2[] = {
/* columns rows colors chars-per-pixel */
"50 50 252 2 ",
"   c #1C1C1C",
".  c #350F0F",
"X  c #352911",
"o  c #3C2D13",
"O  c #342715",
"+  c #2D2718",
"@  c #063C3C",
"#  c #193837",
"$  c #1E2A2A",
"%  c #2C2C2C",
"&  c #242625",
"*  c #322B2A",
"=  c #253C35",
"-  c #283936",
";  c #333333",
":  c #3B3B3B",
">  c #373939",
",  c #31322B",
"<  c #4B0303",
"1  c #5C0202",
"2  c #580808",
"3  c #451515",
"4  c #561A1A",
"5  c #630101",
"6  c #6C0202",
"7  c #680C0C",
"8  c #740101",
"9  c #7C0101",
"0  c #740A0A",
"q  c #661717",
"w  c #791811",
"e  c #4C310D",
"r  c #423216",
"t  c #463519",
"y  c #4A361B",
"u  c #4B3919",
"i  c #473818",
"p  c #543C1D",
"a  c #593E1E",
"s  c #432F18",
"d  c #572828",
"f  c #433621",
"g  c #443A25",
"h  c #5B3E21",
"j  c #4E3232",
"k  c #6B2E2E",
"l  c #623B11",
"z  c #2C4535",
"x  c #584419",
"c  c #544810",
"v  c #625413",
"b  c #6B5915",
"n  c #745C19",
"m  c #6F4D13",
"M  c #766A0B",
"N  c #7C6518",
"B  c #776D0A",
"V  c #5E4220",
"C  c #514D30",
"Z  c #634423",
"A  c #694625",
"S  c #6B4825",
"D  c #6C4628",
"F  c #764E2A",
"G  c #734C28",
"H  c #7C512B",
"J  c #725120",
"K  c #705334",
"L  c #7F6629",
"P  c #003F40",
"I  c #054646",
"U  c #184645",
"Y  c #045758",
"T  c #105553",
"R  c #294847",
"E  c #364A49",
"W  c #285656",
"Q  c #375A5A",
"!  c #314D50",
"~  c #036868",
"^  c #007273",
"/  c #027C7D",
"(  c #116E6F",
")  c #276969",
"_  c #376B6B",
"`  c #2A7474",
"'  c #025F60",
"]  c #434343",
"[  c #4C4B4B",
"{  c #564847",
"}  c #5B5B5B",
"|  c #555555",
" . c #4F5353",
".. c #644242",
"X. c #705252",
"o. c #506D6C",
"O. c #676767",
"+. c #677676",
"@. c #737373",
"#. c #7A7D7D",
"$. c #706E6E",
"%. c #777B58",
"&. c #8C0000",
"*. c #850505",
"=. c #930000",
"-. c #9B0000",
";. c #970B0A",
":. c #8E160D",
">. c #A50000",
",. c #A90202",
"<. c #B80404",
"1. c #B31611",
"2. c #852424",
"3. c #B52828",
"4. c #C70303",
"5. c #D60606",
"6. c #D81818",
"7. c #CE1A1A",
"8. c #E70707",
"9. c #E71414",
"0. c #F91919",
"q. c #F10F0F",
"w. c #D03516",
"e. c #D92626",
"r. c #CC302F",
"t. c #FD2222",
"y. c #FB2B2B",
"u. c #E73636",
"i. c #FB3939",
"p. c #EE2323",
"a. c #AF5F1D",
"s. c #B35100",
"d. c #84770E",
"f. c #83651D",
"g. c #8C7B11",
"h. c #947F14",
"j. c #8E6D08",
"k. c #B46418",
"l. c #855522",
"z. c #876621",
"x. c #906F35",
"c. c #AD7931",
"v. c #CE6C12",
"b. c #D16C11",
"n. c #CB6C0D",
"m. c #EC7D1C",
"M. c #E66E14",
"N. c #C9762C",
"B. c #CD7629",
"V. c #D45D09",
"C. c #B1494A",
"Z. c #887777",
"A. c #A86162",
"S. c #D24F4F",
"D. c #FD4242",
"F. c #FE4B4B",
"G. c #F64C4C",
"H. c #FC5757",
"J. c #EF5E5E",
"K. c #D96868",
"L. c #FD6C6C",
"P. c #FD6464",
"I. c #FD7878",
"U. c #EC7777",
"Y. c #76926E",
"T. c #76A27E",
"R. c #2B8A76",
"E. c #9A8217",
"W. c #928C09",
"Q. c #A5871B",
"!. c #B28D05",
"~. c #AF9D1C",
"^. c #C69210",
"/. c #D0B316",
"(. c #FCB20E",
"). c #D98935",
"_. c #F28E34",
"`. c #FBB332",
"'. c #D0A730",
"]. c #CECC13",
"[. c #D3D012",
"{. c #D2CF36",
"}. c #F7D721",
"|. c #F9D721",
" X c #FECE30",
".X c #F3D42C",
"XX c #F7D22D",
"oX c #AC854F",
"OX c #AA8852",
"+X c #AF8E57",
"@X c #AA9863",
"#X c #9A8D6A",
"$X c #C98445",
"%X c #D0944B",
"&X c #ED9954",
"*X c #D7AA67",
"=X c #E4AC5D",
"-X c #D6D146",
";X c #EDC97C",
":X c #EDEC73",
">X c #EFDD4D",
",X c #007E80",
"<X c #008B8C",
"1X c #028485",
"2X c #019494",
"3X c #069999",
"4X c #178484",
"5X c #308D8D",
"6X c #02A6A7",
"7X c #02B8B9",
"8X c #16ADAD",
"9X c #32A9A9",
"0X c #4F9292",
"qX c #7B8484",
"wX c #6A8989",
"eX c #77B591",
"rX c #6BADAD",
"tX c #77C19E",
"yX c #7ACAA6",
"uX c #03BEC0",
"iX c #01C6C7",
"pX c #02D8D8",
"aX c #00CED0",
"sX c #00E6E7",
"dX c #00F8F8",
"fX c #12F2F2",
"gX c #31D4D4",
"hX c #868888",
"jX c #989898",
"kX c #909090",
"lX c #A49C97",
"zX c #9EA6A6",
"xX c #9CBBBB",
"cX c #A8A8A7",
"vX c #B6B6B6",
"bX c #B8B6AA",
"nX c #A4A496",
"mX c #D08787",
"MX c #FEBD83",
"NX c #E2A386",
"BX c #EECC86",
"VX c #EEE9A5",
"CX c #C7C6C6",
"ZX c #D3D3D3",
"AX c #DDDDDD",
"SX c #D0D5D5",
"DX c #E2DFDF",
"FX c #E2E3E3",
"GX c #EBEBEB",
"HX c #FAFAFA",
"JX c #D7EAEA",
"KX c #81CCA9",
/* pixels */
"y y y y y y y y y y y y y y y y y y y y y y y y y y y y y y y y y y y y y y y y y i y y y y y f y y ",
"H H H H H H H H H H H H H H H H H H H H H H H H H H H H H H H H H H H H H H H H H H H H F l.H l.H H ",
"S S S S D Z Z p Z D S S D D S D D A S Z A p Z D D A Z h a S D S S Z Z p h D D D S D D S J Z Z p Z S ",
"i p S S A p D O h D i r r V Z y y h i i D O V F y h Z s y F g r y y D o h Z h y p p V y k h h X G D ",
"y a D K A.E.~.B E.Q.d.d.g.h.h.g.g.h.d.d.Q.B E.Q.g.E.E.d.g.Q.h.g.g.E.Q.B E.E.E.g.g.g.h.g.E.x.l.s F F ",
"y u Z x.VX|. X.X X X X X X X X X X X X X X X X X X X X X X X X X X X X X X X X X X X X X X`.l X F F ",
"x y h L .X).a.a.k.a.a.a.a.a.a.a.a.a.a.a.a.a.a.a.a.a.a.a.a.a.a.a.a.a.a.a.a.a.a.a.a.a.a.a.b.M.e X F S ",
"Z p i N |.N.y = - = > - R R R R = = = = = = = = = = = = = = - - = = = = = = - - z - , % x.m.e X F D ",
"S p i v |.N.f Y ^ 2X3X6X7XuXuX9X+.+.+.O.O.O.O.O.} O.O.O.O.O.O.O.O.O.+.+.0X6X6X<X/ ~ Y I %.m.e X F Z ",
"S a i v |.N.f ^ 6X7XuXaXsXKXzXmXL.P.P.F.F.F.i.y.t.y.y.y.i.F.F.F.F.P.L.P.mXxXgX6X/ ~ ~ ^ T.m.e X F x ",
"S A i v |.N.f 6XiX7X7XuXrXI.I.L.L.P.H.F.D.D.i.t.t.0.t.t.i.i.D.D.F.P.P.P.I.I.mX5X2X1X<X6XeXm.e X F V ",
"Z F h b |.B.g 7XsXuX7X#.P.I.I.I.L.I.H.F.F.D.D.i.t.t.t.t.i.D.F.H.H.L.L.I.I.I.I.K.9XiXiXsXyXm.e X F Z ",
"a G G n |.N.g 6XsXsX8Xr.0.H.I.H.u.u.e.e.e.7.e.5.6.5.6.5.e.e.7.e.e.u.u.i.L.I.D.9.@.sXsXdXyXm.e X F A ",
"p S F f.|.N.f 3XpXdX7X5 <.0.p.7.w E ! W Q Q E j k d j R Q _ _ ) Q k k 1.6.0.8.-.Q sXdXdXyXm.e O F Z ",
"u Z G f.|.N.f <XpXdX5X8 9 >.=.w W ` 5X4X( T Q | O.+.O.) ^ <X3X3X5X` _ ..=.-.-.8 X.fXfXdXyXm.e X F F ",
"i a S f.|.N.f <XpX9XK.6.-.6 1 { xXAXCXqXE ] } cXDXFXcX[ W ^ ,Xo.vXZXjX| 1 5 9 <.u.lXfXsXyXm.e X F F ",
"i p S f.|.N.f ( 9XK.L.H.9.&.j CXFXjX} E U P O.AXHXSXjXzXjX) ' R { cXFX@.d 9 <.i.P.L.jXuXeXm.e X F F ",
"p y a n |.N.f E u.H.I.I.J.X.rXJXjX} - j U P o.CXFXcX#.kXhXo.I E + [ vXCX#X..C.L.I.L.G.C.eXm.e X F F ",
"u i y v |.N.f P ,.y.H.U.+.3XSXSX$.; % ]  .U W vXCXjX$.R P P ! O.* % hXGXCXwXT A.L.F.8.d Y.m.e X F F ",
"a i t v }.N.f U -.8.y.S.4X6XJXvX .; * | #.+. .cXFXCXcX#. .P _ #XO ; $.ZXAX0X2X .D.0.4.d eXm.e X F S ",
"Z i r v }.N.f Y d <.5.;.{ ) SXhX: % , ] kXvXCXGXHXHXGXZXjX+.qX#., : O.ZXAX0X) q <.4.;.` eXm.e X F Z ",
"Z p r v }.N.g 1X1Xd >.8 7 j SXqX: ; % % [ lXGXHXHXHXHXFXzX+.o.] ; ] $.ZXAX+.4 8 *.;.) aXyXm.e X F V ",
"x p i v }.N.g 6XpX,X7 1 5 7 ZXqX: % ; % % [ vXFXAXAXAXCXkX| E % * [ @.ZXDXX.1 1 6 _ aXsXyXm.r X F V ",
"a V i v |.N.g 7XdXiX2.&.8 6 ZXhX: % % ; % ; #.CXvXcXvXjXO.; & & > } Z.ZXDXX.8 =.,.o.sXpXtXm.e X F V ",
"p x p n |.N.f 6XdXfXS.4.>.0 bXqX] : ; * % % qXCXkXqX#.#.} * & % > } hXZXDXX.-.5.q.#.aX7XeXm.e X F V ",
"p h V n |.N.f 2XfXlXD.9.<.w cXjX] > ] > % * #.cX} | | } | ; % >  .@.zXAXDXX.,.8.p.P.0XuXeXM.e X F V ",
"i a V n |.N.y / +.H.L.u.;.] kXCX[ ; > ; - # @.kX[ : : | @.] : : } kXCXFXvX$.d 1.H.L.S.iXeXm.e X F V ",
"i p a n |.N.f <X .9.H.2.: ! o.vXO.% ; - @ I #.kX> % % O.jXO.: ] @.cXSXGXcXQ U k r.D.7.iXeXm.e X F S ",
"i i y v |.N.g 6X_ =.5.9 2 j W vXjX: % # @ U jXcX:     $.vXO.: : $.CXAXCXwXT . 0 ,.4.q 7XtX^.e X F S ",
"i y y v }.N.g 6X6X; 9 8 5 1 j #.CX} - # I z cXvXz     kXvX$.> ; O.AXGXjX} O 1 6 0 q ( uXT.M.e e F F ",
"u i i v }.N.g 3XaX2XW $ 3 *.6 ..zXjX> @ I  .CXCX[   > bXZXkX; # } FXcXO.4 9 5 % : ( 2X6XT._.e X F F ",
"p i t v }.N.f ,XpXwXC.q 4 0 =.6 ..kX} - E nXvXvXcX#XlXlXCXcXo.P Q zXO.4 *.=.j d 2.A.5X<XY._.e X F S ",
"Z p r v }.N.f ~ qXL.H.1.&.9 -.=.d | } c.&X{.{.{.>X-X{.{./.~.W.z I I # 2 ,.&.0 >.r.L.K.5XY.m.e O F V ",
"A p i v |.N.f ! u.D.H.3.9 8 8 *.8 { oX>XVXVXVXBX=X&X&X>X[./.W.v z I s 0 9 6 8 *.S.H.y.C.Y.m.e O F V ",
"S x p b |.N.f - ,.9.9.7 % % 2 5 5 [ x..X.X:X/.w.8 ,.4.w.j.j.M c z Y O 8 2 3 $ O ,.9.4.q Y.m.e O F V ",
"Z Z p n |.N.f P * *.-.&.* I & 1 d U K (.[.:Xw.6 < &.< 6 0 M c u Y / T 3 < # # 7 ,.=.0 T Y.m.e X F V ",
"a S h f.|.B.f ' 1X~ * * 2 6 6 3 R E C (.].;X4.=.. . < 5 *.B c c ^ <X~ = 5 6 8 3 3 # Y 2XeXm.e X F V ",
"a S D f.|.N.f ^ 9X#...R U % 1 8 3 @ K (.].BX;.9 . . < ,.,.M c c T ~ # 5 6 3 & @ j X.( <XeXM.e X F V ",
"p S G f.|.N.f ` mXP.9.<.q 4 9 &.9 . z (.].BXw.< . *.. 9 :.M c c Y # 5 *.&.7 4 *.4.i.A.4XY.m.e X F V ",
"i V S f.|.N.f Q G.P.H.<.7 9 >.,.*.2 C (.].BXk.<.,.=.1 *.c B c c Y $ 9 -.,.=.8 :.e.P.H.A.Y.m.e X F V ",
"y a G z.|.N.j P ;.p.u.q # * 7 >.*.. z.`.>XVX:X;XM.V.s.j.B B x c U # 5 -.*.j { k 1.u.5. .T.m.e X F A ",
"i p h f.|.N.y Y ( :.=.5 2 & # R R W n.Q.*X*X*X*X^.^.!.j.d.f.G x C I U E U U d 6 6 ;.X.<XY.m.e X F S ",
"u u h n |.N.s ' <XW - 9 -.=.3 / <Xx.).-X;XBXVXMX-X/./.!.E.d.f.D c = ~ / T 8 ;.=.4 R 1X,XY.m.e X F S ",
"u i p n |.N.f Y Y * 4 2 0 =.4 ^ R.Q.Q.%X%X+X=X&X).^.^.j.M f.n J c z I Y P *.&.q d d ' ^ Y.m.e X F F ",
"u i u b |.N.s P P P P P % 3 I Y L ^.`.=X*X;XMX*X'.^.^.W.d.N N J m x # @ @ # > ,X<X/ ^ ^ Y.m.e O F H ",
"p i t v |.m.N.OXoXoXoXOXOXOX+XOX$X).&X_.).&X_._.).).).$XN.$X%X%X$X$XoXoXoXOX+X@X@X@X+X+X%Xm.e O F H ",
"p i r v XXB.b.b.b.b.b.b.b.v.v.v.v.v.n.v.b.b.v.v.v.v.b.b.v.v.b.v.b.n.b.b.b.b.b.b.b.b.b.b.n.n.e X F H ",
"V p y x x.s s o t s o o o o o o o o o o e r t r o o i r r t o o o o r r t s o o o o o o X o o O F H ",
"A p i i a a A o Z h o r i r r r u V h i Z o Z A u i V t p A r r r r A o x Z t p y r r r r i Z o F H ",
"V a a a x h F o S G u u u y u u V Z V V F o A F y u G y p H u y u p F r A F u Z p y i i i p F o H S "
};
