/* XPM */
static char *_6ee2bcbefc14d72ba3ebe56ec5ae6fakWYZKL3O1d8fbLFV[] = {
/* columns rows colors chars-per-pixel */
"50 50 211 2 ",
"   c #020202",
".  c #0D0708",
"X  c #070909",
"o  c #0C0C0C",
"O  c #0E0A07",
"+  c #120708",
"@  c #160C0C",
"#  c #1F1F00",
"$  c #0F1010",
"%  c #141313",
"&  c #1C1C1C",
"*  c #171B10",
"=  c #380806",
"-  c #201F00",
";  c #251E1F",
":  c #381E19",
">  c #2D0708",
",  c #222204",
"<  c #322213",
"1  c #37291C",
"2  c #3C3B1E",
"3  c #353515",
"4  c #1F1F22",
"5  c #1E2121",
"6  c #242424",
"7  c #2A2424",
"8  c #262A2A",
"9  c #2B2C2C",
"0  c #262728",
"q  c #372827",
"w  c #35352B",
"e  c #2D2E30",
"r  c #2D3131",
"t  c #333333",
"y  c #353939",
"u  c #3C3C3C",
"i  c #460000",
"p  c #4B0404",
"a  c #4C0C0C",
"s  c #440F0F",
"d  c #540101",
"f  c #5C0102",
"g  c #520C0C",
"h  c #5C0808",
"j  c #5B0708",
"k  c #4D1616",
"l  c #501010",
"z  c #640101",
"x  c #6E0000",
"c  c #650C0C",
"v  c #690808",
"b  c #720101",
"n  c #7C0000",
"m  c #750B0B",
"M  c #7A0F0F",
"N  c #681212",
"B  c #761A1A",
"V  c #472925",
"C  c #423122",
"Z  c #453428",
"A  c #463D3D",
"S  c #592D2D",
"D  c #652C2C",
"F  c #7B2727",
"G  c #693C3C",
"H  c #7B3F3F",
"J  c #753535",
"K  c #51430C",
"L  c #5D5016",
"P  c #494900",
"I  c #675B11",
"U  c #6F6C05",
"Y  c #746F12",
"T  c #4B4A29",
"R  c #575623",
"E  c #414134",
"W  c #5B5A3B",
"Q  c #584A3C",
"!  c #665F2C",
"~  c #3E3E40",
"^  c #394242",
"/  c #434343",
"(  c #454B4B",
")  c #4B4B4B",
"_  c #4B4242",
"`  c #554C4A",
"'  c #5A4A4A",
"]  c #524545",
"[  c #5F5F40",
"{  c #4F4F50",
"}  c #4F5656",
"|  c #545454",
" . c #5B5555",
".. c #5B5C5B",
"X. c #575B5C",
"o. c #6A4A4A",
"O. c #7F4040",
"+. c #754949",
"@. c #635B5B",
"#. c #6A5A5A",
"$. c #785656",
"%. c #676747",
"&. c #757455",
"*. c #797959",
"=. c #787758",
"-. c #596363",
";. c #636363",
":. c #6C6C6C",
">. c #6F6F63",
",. c #7B786A",
"<. c #6F6F70",
"1. c #6D7171",
"2. c #747373",
"3. c #7A7A7A",
"4. c #797574",
"5. c #840000",
"6. c #890000",
"7. c #840D0D",
"8. c #960000",
"9. c #9A0000",
"0. c #970C0C",
"q. c #931B1B",
"w. c #A60000",
"e. c #AC0000",
"r. c #A50F0F",
"t. c #AB0B0B",
"y. c #B10101",
"u. c #BD0000",
"i. c #B60A0A",
"p. c #BD0C0C",
"a. c #BF1212",
"s. c #B41313",
"d. c #A01A1A",
"f. c #9F3535",
"g. c #892626",
"h. c #A93636",
"j. c #A32424",
"k. c #C20000",
"l. c #CC0000",
"z. c #C00A0A",
"x. c #CE0E0E",
"c. c #D50000",
"v. c #DD0101",
"b. c #C31414",
"n. c #CA1515",
"m. c #C61919",
"M. c #C81919",
"N. c #D51616",
"B. c #E00000",
"V. c #D62F2F",
"C. c #976D3C",
"Z. c #864747",
"A. c #8B5454",
"S. c #935B5B",
"D. c #BC4444",
"F. c #BD5555",
"G. c #AA5858",
"H. c #856B49",
"J. c #877D60",
"K. c #887979",
"L. c #987E7E",
"P. c #927878",
"I. c #A86C6C",
"U. c #B46D6D",
"Y. c #BF6565",
"T. c #B87676",
"R. c #AF7676",
"E. c #C34040",
"W. c #D14949",
"Q. c #CF5E5E",
"!. c #CF6464",
"~. c #D46262",
"^. c #C07474",
"/. c #9B900A",
"(. c #A6950C",
"). c #A9970D",
"_. c #AB990F",
"`. c #AC9A10",
"'. c #AC9415",
"]. c #B99928",
"[. c #B0A62F",
"{. c #C2AC12",
"}. c #D0C206",
"|. c #D8CC28",
" X c #88876A",
".X c #7E8585",
"XX c #848484",
"oX c #8C8D8D",
"OX c #888787",
"+X c #8E9292",
"@X c #959595",
"#X c #9B9B9B",
"$X c #9E9696",
"%X c #9A8989",
"&X c #A98C8C",
"*X c #AB9C9C",
"=X c #B09999",
"-X c #9FA3A3",
";X c #A3A3A3",
":X c #AAACAC",
">X c #B2A2A2",
",X c #B5B5B5",
"<X c #BBBABA",
"1X c #C58686",
"2X c #CD9F9F",
"3X c #C1ACAC",
"4X c #E3ADAD",
"5X c #C3C3C3",
"6X c #CCCCCC",
"7X c #D0C3C3",
"8X c gray84",
/* pixels */
"9 9 9 9 9 9 9 9 t / ~ / / / ^ / ~ / / ~ / 0 0 y u ~ ~ ~ ~ ~ / u y 7 7 0 0 0 0 0 9 9 9 9 e e e 9 9 9 ",
"0 0 7 6 0 0 & 0 ( 3.4.2.3.4.3.2.4.3.3.4.;.o % ;.2.;.;...@.;.;.;.y o o 9 t t 9 t 9 9 t 7 0 0 6 6 0 6 ",
"u u u u ~ R - 4 ( 2.4.4.<.<.2.<.2.2.<.;.E X & <.:.| { { { | { | 0     u :.:.:.:.:.;.| u R T u u ~ u ",
":.<.<.,.H.{.P 2 W =...*.=.%.=.=.*.&.&.%.T , 3 *.*.%.%.&.&.%.[ W 2 # # W  X X X X;.,. X X[.].J.,.<.<.",
"| ;.;.C.'.{.).(._.! * U /.`.`.`.`._._._.).)._._.`.).`.).`.`.).).).).).)._._._.U & ! _.[.|.{.'.H.{ ;.",
";.3.:.Q Z Y K 2 C ' N z = < < C C q C C C C C q C C C C C C C C C C C C 1 < < = V 5 < C I L C 1 y @.",
"..;...X.u w O o 7 t p.l.6.f d j > O . 6 q % % 0 7 7 $ o o o . . + + + @ f f d n d & w t E 9 r e y { ",
"@.;. .{ ) 9 o   y 2.M.l.y.w.8.5.b z x 6.s.L.( Q.9.n J t ] z z x 6.9.k.l.l.u.w.6.g r ( ;.) E ) { { ) ",
"{ ) | ) t 6 X   t ;.M.l.y.w.9.5.b b n 8.p.&X| Q.w.5.H t ' m x n 9.e.c.B.c.k.w.6.g 9 u / y E ) ] _ / ",
"u ^ A y & o   X 9 @.M.l.y.w.8.5.b b n 8.z.&X} Q.e.5.Z.y ' m x n 9.e.c.v.c.k.w.6.g 6 0 7 9 e e 9 t e ",
"6 & 0 6       X 0 _ b.l.y.w.8.5.n b n 8.z.&X} Q.w.5.Z.y ' x x n 8.e.c.B.c.k.w.6.i   X X o X   X   X ",
"              X 0 u a.l.y.w.8.5.b b n 8.z.&X} !.e.5.H t ' m x n 9.w.c.B.c.k.w.6.p O . X X X X X X X ",
"0 0 9 9 9 9 0 X & 9 p.l.y.w.8.5.b b n 8.z.&X} !.e.5.Z.y ' v b n 9.e.c.B.c.k.w.6.g 8 t t u y u u u u ",
"<.2.<.<.<.;.| X % 7 y.l.y.w.9.5.b b n 9.V.=X} !.t.5.O.y ' m x n 9.e.c.v.c.k.w.6.a r ) ;.2.<.2.2.2.<.",
";.| ....;.X.| O $ 7 i.l.y.w.9.5.b b n h.4X@X( 7X3X>X$X/ ) ] S z 8.e.c.B.c.k.w.6.g r ) :.<.<.:.1.:.:.",
"@.| X.| | ` u   o 7 i.l.y.w.8.5.n b D :.3.;.) 3.2.:...) t t 9 q B e.c.B.c.k.w.6.g 9 / | | X.{ _ ) { ",
"..| | | | ) t   o 7 i.l.y.w.8.5.b D ;.t ..:.) <.:.;.X.) t e e t @.q.c.B.c.k.w.6.g t / | | | } / ) ) ",
"| | u ) | | 9     ; i.l.y.w.8.5.m #.e ;.;.#X X~ t 3.;XXX..e e u y Z.c.v.c.k.w.6.g 9 / | | | ) u / ) ",
") / / ) | / 6     t a.l.y.w.8.m +.9  .| #X:Xy   X { #X2.| | t A u ) Q.v.c.k.w.6.g r ) | | | ) / ) } ",
"` X.| | ) u &     ` M.l.y.w.8.B / / ) 3.;X)   o ~ +XoXe   o u u / ( 3.M.c.k.w.6.g 9 / u A / / ) ) ) ",
"/ / y / t &       ) 1X1XR.S.+.o.9 X.y $X/ 5   % @.#Xt       o ) 6 t 2.1XT.I.A.G : $ 6 ; 6 6 0 9 9 y ",
"6 & o   X         ) .X1.^ r 0 4 ) t 3.-X3.9   X 0 0           % t / ..X.-.( r 5 o               X % ",
"$ % * & 6 9 9 0 & | 1X1XR.S.O.o.<.9 oX:X5XXX&           &       | / ,X1X^.U.A.G q X o $ $ $ $ o     ",
"t ) ;.;.;.;.@.| & ) M.l.e.e.8.F 1.9 2.;.3X8X2.X       & ..9   o | _ 3XV.c.k.w.6.g 0 u u t 0 7 6 % % ",
"/ :.2.3.<.;.;...& | V.x.s.r.0.F 2.9 ;.X ..,XX.        o / ;.y | ../ <XV.N.b.0.7.l 9 ) ;.:.;.;. .6 6 ",
") 2.;... .X.X. .e | *X*XK.#.' ] ;.9 :.    9     % t       u | ;.| ( *X%X%XK.#._ 9 r / ..| ..| ) % & ",
") 2...| | ..) ..6 } +X.XX.^ r q u 9 | y   5   % 3.;X/     o u ;.t ) ..1.:.;.A 0 5 9 / ) X.) X.) & % ",
") 2.;.| | ;.| ) % ) Q.W.D.h.g.Q 9 ) t +X .9 & 3.<X,X2.o     7 ..t ( 4.~.W.h.f.F k t / ( _ ) ) | % % ",
"( 2..... .X.| | % ) n.l.y.w.9.5.+.t ..;.<X,X,X5X5X#X6     6 / 9 ) ) P.b.c.k.w.6.g r / / ) ) ) ) %   ",
") 4.;.;. .X.| ) & A b.l.y.w.8.5.J A :.:.2.6X8X5X5XoX    6 / 0 ) t ..V.c.c.k.w.6.g & & 5 6 ; ; 5 $   ",
") 3.| | ..| | ) & 7 a.l.e.w.8.5.n G.` 3.OX2.OX6X<X;X;./ r $ 7 6 ( $.p.B.c.k.w.6.i                   ",
") 4.;.| { ....| % ; i.l.y.w.9.5.b q.Y. ./ OX:./ / u y 9 / u $ u $.r.c.B.c.k.w.6.a 6 9 0 9 9 9 9 % % ",
") 2...| | ..| / & % i.l.y.w.9.5.b b d.Y.2.| | ,X:X-XoX( 6 r A G 7.e.c.B.c.k.w.6.g r _ :.3.2.2...& & ",
"/ 2.;.......| 9 % @ y.l.y.w.8.5.b b 5.8.f.$X` 2XU.I.P.r  .G h n 8.e.c.B.c.k.w.6.g 9 ) .X3.3.:./ % & ",
"( 2.;. .| | ) 9 % % y.l.y.w.8.5.b b n 8.z.&X} Q.w.5.H y ' b b n 9.e.c.v.c.k.w.6.g 9 ) ;.;.;.;.y %   ",
"y :.| ..) / / 0   % i.c.y.w.9.5.b b n 8.z.&X} Q.w.5.O.y ] m b b 8.e.c.v.c.k.w.6.g r / | ....| / %   ",
"t ..| | y 9 9 &   % y.l.e.w.9.5.n b n 8.z.&X} Q.e.5.H t ' m b n 9.e.c.v.c.k.w.6.g e (  .| | ..A %   ",
"; & & 7 9 9 9 $   ; i.l.y.w.9.5.b b n 8.z.&X} Q.e.5.Z.y ] m b b 8.e.c.B.c.k.w.6.g e / | ) / / ~ %   ",
"6 & % $ % O o   $ % e.l.y.w.8.5.b b n 8.z.&X} Q.w.5.Z.y ' b x n 9.e.c.B.c.k.w.6.g e / / { ~ u ^ %   ",
"6 8 9 0 7 & X   % @ e.l.y.w.8.5.b b n 8.z.&X} !.e.5.H t ' m b n 8.e.c.v.c.k.w.6.g r / ( _ ( ) E %   ",
"9  .<.<.:.@.| u y 7 y.l.y.w.9.5.b b 5.8.p.&X} Q.w.5.O.y ' x x n 9.e.c.B.c.k.w.6.g 9 t t t t t t @   ",
"e <.2.;.:.3.3.4.<.@.b.l.e.w.9.5.b b n 8.z.&X} Q.w.5.Z.y ' m x n 8.e.c.B.c.k.w.6.p $ 6 0 0 6 6 $ X $ ",
"w :.<.;.;.:...;.4.2.b.l.y.w.9.5.b b 5.9.z.&X| ~.e.5.O.y ' m b n 9.e.c.B.c.k.w.6.i         X     O 5 ",
"t :.;.X.X./ | | )  .j.r.7.5.m v j j c 5.t.L.( F.9.5.J 9 _ d d f 6.w.v.B.c.l.w.5.= o   o X   o ; 5 9 ",
"t :.:.....) ) X.} ;.| / t t 9 9 9 9 0 : k A 8 S a a 1 & 6 $ $ @ s l M 7.M M N l ; 0 t ) ) ) y 9 9 9 ",
"t ..) ~ / t ~ / A / A y A A y y y y y t r r 9 r 0 6 o o & 9 9 9 9 8 e r 8 9 8 8 9 y ) ;.;.;.@...; 5 ",
"9 y 6 & & & & & & & & & & & ; & & & & & & ; & & & %     6 { ) A / / / y e { _ ( ) )  .X.X. .| | % 5 ",
"; X                                                     $ & * & 5 6 7 5 9 X.) ) { ) ) ) ) | / u $ ; ",
"0 5 & % % % $ % % $ % % $ % @ $ % $ % % $ % % $ % % $ % % 9 9 % o       o 0 & % % % % % % % % % X 5 ",
"t y t t t t t t t t t t t t t t t t t t t t t t t t t t t t y t t 0 9 9 9 t 9 9 0 7 0 9 0 0 6 9 9 t "
};
