/* XPM */
static char *_e70c0d294994f2fa6b087e7dde183b7U6kWfcCZX4UWn2WI[] = {
/* columns rows colors chars-per-pixel */
"50 50 256 2 ",
"   c black",
".  c #010101",
"X  c #020202",
"o  c gray1",
"O  c #040404",
"+  c gray2",
"@  c #060606",
"#  c #070707",
"$  c gray3",
"%  c #090909",
"&  c gray4",
"*  c #0B0B0B",
"=  c #0C0C0C",
"-  c gray5",
";  c #0E0E0E",
":  c gray6",
">  c #101010",
",  c #111111",
"<  c gray7",
"1  c #131313",
"2  c gray8",
"3  c #151515",
"4  c #161616",
"5  c gray9",
"6  c #181818",
"7  c #191919",
"8  c gray10",
"9  c #1B1B1B",
"0  c gray11",
"q  c #1D1D1D",
"w  c #1E1E1E",
"e  c gray12",
"r  c #202020",
"t  c gray13",
"y  c #222222",
"u  c #232323",
"i  c gray14",
"p  c #252525",
"a  c gray15",
"s  c #272727",
"d  c #282828",
"f  c gray16",
"g  c #2A2A2A",
"h  c gray17",
"j  c #2C2C2C",
"k  c #2D2D2D",
"l  c gray18",
"z  c #2F2F2F",
"x  c gray19",
"c  c #313131",
"v  c #323232",
"b  c gray20",
"n  c #343434",
"m  c #353535",
"M  c gray21",
"N  c #373737",
"B  c gray22",
"V  c #393939",
"C  c #3A3A3A",
"Z  c gray23",
"A  c #3C3C3C",
"S  c gray24",
"D  c #3E3E3E",
"F  c #3F3F3F",
"G  c gray25",
"H  c #414141",
"J  c gray26",
"K  c #434343",
"L  c #444444",
"P  c gray27",
"I  c #464646",
"U  c gray28",
"Y  c #484848",
"T  c #494949",
"R  c gray29",
"E  c #4B4B4B",
"W  c #4C4C4C",
"Q  c gray30",
"!  c #4E4E4E",
"~  c gray31",
"^  c #505050",
"/  c #515151",
"(  c gray32",
")  c #535353",
"_  c gray33",
"`  c #555555",
"'  c #565656",
"]  c gray34",
"[  c #585858",
"{  c gray35",
"}  c #5A5A5A",
"|  c #5B5B5B",
" . c gray36",
".. c #5D5D5D",
"X. c gray37",
"o. c #5F5F5F",
"O. c #606060",
"+. c gray38",
"@. c #626262",
"#. c gray39",
"$. c #646464",
"%. c #656565",
"&. c gray40",
"*. c #676767",
"=. c #686868",
"-. c DimGray",
";. c #6A6A6A",
":. c gray42",
">. c #6C6C6C",
",. c #6D6D6D",
"<. c gray43",
"1. c #6F6F6F",
"2. c gray44",
"3. c #717171",
"4. c #727272",
"5. c gray45",
"6. c #747474",
"7. c gray46",
"8. c #767676",
"9. c #777777",
"0. c gray47",
"q. c #797979",
"w. c gray48",
"e. c #7B7B7B",
"r. c #7C7C7C",
"t. c gray49",
"y. c #7E7E7E",
"u. c gray50",
"i. c #808080",
"p. c #818181",
"a. c gray51",
"s. c #838383",
"d. c #848484",
"f. c gray52",
"g. c #868686",
"h. c gray53",
"j. c #888888",
"k. c #898989",
"l. c gray54",
"z. c #8B8B8B",
"x. c gray55",
"c. c #8D8D8D",
"v. c #8E8E8E",
"b. c gray56",
"n. c #909090",
"m. c gray57",
"M. c #929292",
"N. c #939393",
"B. c gray58",
"V. c #959595",
"C. c gray59",
"Z. c #979797",
"A. c #989898",
"S. c gray60",
"D. c #9A9A9A",
"F. c #9B9B9B",
"G. c gray61",
"H. c #9D9D9D",
"J. c gray62",
"K. c #9F9F9F",
"L. c #A0A0A0",
"P. c gray63",
"I. c #A2A2A2",
"U. c gray64",
"Y. c #A4A4A4",
"T. c #A5A5A5",
"R. c gray65",
"E. c #A7A7A7",
"W. c gray66",
"Q. c #A9A9A9",
"!. c #AAAAAA",
"~. c gray67",
"^. c #ACACAC",
"/. c gray68",
"(. c #AEAEAE",
"). c #AFAFAF",
"_. c gray69",
"`. c #B1B1B1",
"'. c #B2B2B2",
"]. c gray70",
"[. c #B4B4B4",
"{. c gray71",
"}. c #B6B6B6",
"|. c #B7B7B7",
" X c gray72",
".X c #B9B9B9",
"XX c gray73",
"oX c #BBBBBB",
"OX c #BCBCBC",
"+X c gray74",
"@X c gray",
"#X c gray75",
"$X c #C0C0C0",
"%X c #C1C1C1",
"&X c gray76",
"*X c #C3C3C3",
"=X c gray77",
"-X c #C5C5C5",
";X c #C6C6C6",
":X c gray78",
">X c #C8C8C8",
",X c gray79",
"<X c #CACACA",
"1X c #CBCBCB",
"2X c gray80",
"3X c #CDCDCD",
"4X c #CECECE",
"5X c gray81",
"6X c #D0D0D0",
"7X c gray82",
"8X c #D2D2D2",
"9X c LightGray",
"0X c gray83",
"qX c #D5D5D5",
"wX c gray84",
"eX c #D7D7D7",
"rX c #D8D8D8",
"tX c gray85",
"yX c #DADADA",
"uX c gray86",
"iX c gainsboro",
"pX c #DDDDDD",
"aX c gray87",
"sX c #DFDFDF",
"dX c gray88",
"fX c #E1E1E1",
"gX c #E2E2E2",
"hX c gray89",
"jX c #E4E4E4",
"kX c gray90",
"lX c #E6E6E6",
"zX c #E7E7E7",
"xX c gray91",
"cX c #E9E9E9",
"vX c #EAEAEA",
"bX c gray92",
"nX c #ECECEC",
"mX c gray93",
"MX c #EEEEEE",
"NX c #EFEFEF",
"BX c gray94",
"VX c #F1F1F1",
"CX c gray95",
"ZX c #F3F3F3",
"AX c #F4F4F4",
"SX c gray96",
"DX c #F6F6F6",
"FX c gray97",
"GX c #F8F8F8",
"HX c #F9F9F9",
"JX c gray98",
"KX c #FBFBFB",
"LX c gray99",
"PX c #FDFDFD",
"IX c #FEFEFE",
"UX c white",
/* pixels */
"M M M M M M M m K | } } } } } } } } } } { c M T ( [ [ { { ] _ ! L c z b c c c c c v m N N N N N N N ",
") ) ) ) ) ) _ Q d.uXwX9X8XwXwXwXqX7XqXwXOXN ( I. X{. X_.`.(.W.T.2.N n ] $.$.$.$.@.} [ ! Q Q Q Q Q Q ",
"e.e.e.w.q.q.U T f.rX-X%X*X>X=X=X,X#X*XoXr.h { +X].N.D.V.m.V.B.B._ k z t.$X&X%X&X.XU.M.q.8.8.8.8.8.8.",
"*X;X$X_.H.l.F I g.eX).~.^.L.Q.~.^.P.~.Z.X.f / !.J.n.S.U.Y.J.v.9./ l x h.yX4X$X=X3X8X4X;X=X#X$X@X#X@X",
"^.W.E.W.V.9.V L x.eXY.P.T.Y.L.K.J.N.U.N...g Z 0.N.J.F.N.I.A.z._ U l z h.4X!.D.G.S.P.P.Z.A.S.L.K.S.F.",
"`.H.J.G.h.*.b B x.pXI.B.H.T.F.v.v.B.J.l. .g A ' s.J.I.D.Z.Z.z.P N x v h.4XE.S.m.n.C.j.S.B.D.L.N.N.K.",
"U.U.H.M.,.W j l t.1XR.G.D.L.A.v.v.m.S.f.{ d c W | 8.] / ! / ! Z v f M r.qX].S.c.l.n.x.B.G.Z.M.J.M.v.",
"j.l.j.1.^ P g k >.3X`.T.S.x.m.b.n.N.J.e.%.v d K S B c z l k z a r z Y } &X/.m.m.S.V.V.j.n.x.B.B.b.k.",
"&.$.O.^ m l i z ..XXE.A.b.i.h.G.V.C.v.h.o.b d H G M C K E ' | o.' I W { _.M.l.a.g.0.6.*.O.{ } } } } ",
"b c l l s s d B ~ Q.*Xn.z.l.b.V.Z.j.x.n.%.B d H o.p.D..X;X>X*XW.u.T H ' x.2.&.{ / ! K J F A N M M M ",
"f g g h l l l D W j.;XA.Z.k.n.V.c.n.M.s.| N p N l.=X8X%XR.E.Y.V.%.x c A J D S Z B B m z h a i i i i ",
"S B m m m m n F ! 2.oXJ.G.A.m.c.l.M.H.8.] A i A Z.qX`.B.n.b.n.b.' l l m n n M j n b b V V V V V V V ",
"7.>.*.=.=.=.$.V J { ~.E.S.v.G.C.b.V.M.i.O.T y V S.qXB.V.I.Z.D.m.' l z { d.S.*.Z _ ;.2.2.2.2.2.2.2.2.",
"#X#X$X$XoX^.g.m m ~ n._.Z.N.k.c.l.A.g.r.1.Y r N Z.,XL.Z.V.D.A.z._ l x b.2X*X[ T j.$X<X>X>X>X,X,X,X,X",
"!.G.U.L.E.c.<.N m ~ ;.J.Z.C.C.v.u.a.>.*.o.F r n B.oXD.y.:.>.+.] W l N XX+XD.G Q ).0XOX}.|.|.[.{.[.{.",
"P.C.S.D.S.s.$.M x ^ ( p.5.*.*. ./ ] E T C f r d s.y.$.O.M z z z z s E &X/.M.G ! '.=XK.D.F.F.N.l.v.B.",
"I.C.S.D.S.s.[ n x ^ R G Z Z n z x g u e e r r s / ] v f y u d s s p X.;X/.F.G Q E.(.S.S.D.D.M.k.c.N.",
"C.B.i.v.V.f.] n h ! ..~ D v l j d y h J I Y E ! 8.k.c.n.g.u.9._ z K Z.6XR.l.A W J.).C.C.C.C.m.p.j.n.",
"x.z.j.v.D.q.~ b d 0.;X-X@X_.R.V.-.H Q w.!.XX#X@X4X8X9X0X9X7X!.%.f ) .X*XY.j.B T C._.G.Z.S.D.n.f.z.V.",
"B.D.F.S.l.,.U b s J.@XF.G.L.K.J...I [ `.uX=X.X~./.~.'.'.(.Q.h./ s [ *X|.C.u.n L e.M.d.0.7.q.t.l.m.m.",
"9.7.1.7.+.Y V c s H.].K.G.I.Z.B.L D  .%X*XL.G.z.G.F.m.B.G.N.q.U a [ >X{.L.q.x J A W E T Y W ~ ' #.&.",
"T K Z M z u u f c J.Q.J.D.W.M.0.Z C | %X`.H.V.S.M.z.s.A.S.N.2.I s [ >X~.L.2.c U z p d f f s p j N D ",
"c N V K R E Q ] D H.'.b.A.F.C.6.G l { %X Xn.Z.k.s.d.z.c.v.G.5.U s [ >X].Y.7.x Y Z V S G H A C n d f ",
"+.f.T.XXOX].].B.H M.[.B.l.M.A.w.T a '  X-XV.M.b.N.i.c.h.z.G.6.G p [ &XU.J.u.z ~ j.F.x.2.} / ~ R H I ",
"9.XX6X>XXX].^.Z.S S._.K.b.l.I.k.) f ^ T.<XT.m.l.b.i.c.n.D.n.=.S h [ @X~.C.6.l ..@XI.[.&X|.[.].U.| W ",
"d.<X^.P.D.J.J.n.R F.(.F.K.L.D.c.[ g C g.yX'.I.m.Z.b.n.t.B.n.O.Z l | OXE.K.1.l O.@Xn.K.U.G.Y.J.c.` Y ",
"f.>XK.S.D.P.M.Z.P Z._.D.P.N.J.f.{ h b 7.8XoXY.D.v.j.z.z.D.z.[ z z @.|._.H.9.l X.*XK.S.S.F.D.F.h.E K ",
"f.>XT.C.C.U.D.l.Z M.#XB.M.C.I.j.{ g k O.oX=XJ.x.M.b.N.Z.C.g.~ s l @.}.Y.b.@.z |  XI.T.F.V.N.P.v.I J ",
"d.<XL.K.G.G.G.b.A f.4Xn.F.B.A.a.} g d Q A.2XL.B.n.N.v.z.y.+.P s M | m.e._ A B ) P.m.A.V.M.x.v.d.L V ",
"d.<XT.Y.D.J.D.l.S 9.2Xn.A.V.M.x.X.g p P 1.Q.Z.0.@.` J S m c x p B ! T G H I R S ^ G L I P P P P B m ",
"d.<XS.Z.J.D.C.z.S @.,XH.S.J.m.j.| g u F E | ) H n g a a a a a s V Q / R Q ! ! T m n l j j j j j j m ",
"d.<XT.F.V.J.K.b.F Y -XL.F.c.G.d.{ h y B T J M N n B K K K K K L Y / { ,.3.4.4.4.5.5.1.<.1.1.1.1.~ I ",
"d.,XK.Z.G.F.C.>.V S :XY.n.h.m.z. .c y c } a.s.s.s.s.f.f.f.f.f.x.M.G.R..X@X-X-X-X-X$X*X=X%X#X@XP.( T ",
"p.*XE.U.F.L.Z.^ p H -XP.C.m.n.f.{ M r a &. X1X9X8X8X8X4X7X6X5X9X0XsXjXlXkXaXeXyXuXqXrXeX5X3X@Xi.H G ",
"y.+XR.S.D.Z.z.! d L +XR.Z.Z.N.d.{ Z t e +.oX4X4X7X7X7X=X4X<X:X8X5X<X-X{.(.I.R.T.!.S.K.W.T.E.P.:.S B ",
">./.C.L.k.3.2.U h I _.A.A.D.F.a.X.Z t e ) XX3XP.B.C.Z.V.I.H.W.K.A.U.T.P.b.k.M.G.J.n.S.A.U.P.n.=.S b ",
"O.P.F.m.2.` ( f x L D.P.M.S.n.r.X.Z t r Z '.qXQ.Z.m.V.C.c.C.F.n.Z.U.D.b.v.B.v.j.C.m.x.C.V.Z.Z.-.Z b ",
"Q _ W G ) _ / f N U r.a.u.0.8.%.] Z t r k Y.tX'.S.C.M.m.j.B.b.k.B.V.H.x.C.C.D.m.m.s.f.c.M.k.f.=.M x ",
"! P Z c x n c j F J U K J J K H F M t r h m.,X/.m.C.S.S.z.M.b.d.N.m.v.D.B.j.n.v.l.V.m.j.V.d.e.=.N x ",
"W ] } ] ( L b c F D b i i i i i i i y y k q.s.,.=.*.=.;.z.v.J.m.j.d.k.z.s.k.V.m.C.x.A.l.z.l.l.=.N x ",
"[ D.|.OX.X/.c.,.;.' I B c k l l l l z z C ^ I Z b c c v U #.:.7.1.<.<.<.<.<.1.1.1.<.1.<.<.1.,.' x v ",
"O.XX;XoX X8X8X<X@XG.v.g.u.e.r.7.:.;.@.X.} | / T J J J A b B A A A A A A A A Z m m m m m m m m x l D ",
"o.#XoXI.T.'.E.[.:X4X2X3X3X4X5X1X:X-X+X|.(.I.H.F.Z.4.W R Z n v v b n n k h j j f f f f f f f g n F T ",
"o.@XXXF.H.l.S.Z.x.J.D.L.H.B.Y.P.F.A.T.^.}.-X2X>X_.:.Z ! W $.;.[ P B V D F A N N N N N B B B A T E / ",
"O.}.[.K.J.b.B.D.V.R.C.b.N.s.x.n.z.V.C.F.H.C.W.Q.y.! g I | +X=X%XR.b.p.| ^ $.l.b.v.v.v.c.f.r.1...! ) ",
"+.I.d.3.5.-.3.8.5.q.6.,.3.2.,.,.4.8.5.6.7.4.0.0.O.E j n ..,X).@X*X*XXX,.[ K.=XOX{.{.`.|._.Y.W.E.! U ",
"[ 4.L B V V V V V B V V V V V V V V V V V V B B B N h d ( J.H.U.c.u.n.*.:.}.H.K.F.R.P.D.H.K.G.N.C L ",
"R M d d i i i i i i i i i i i i i i i i i i i i i i i g F T L U Q W Q Y #.G.s.s.z.g.s.j.g.z.t.<.N P ",
") W Y J A A A A A M b b b b b b b b b b b b b b b b b b Z ) Q P z j j k F ( D m M M M M M M M N h I ",
"F G G S S S S S S C B B B B B B B B B B B B B B B B B B V F G G V V V B C F m x x x x x x x x x c A "
};
