/* XPM */
static char *fcd1303d713d401ecccf6a20cebe6d72ldDIiU0rNId5gRHW[] = {
/* columns rows colors chars-per-pixel */
"50 50 224 2 ",
"   c #010000",
".  c #0A0402",
"X  c #0D0A04",
"o  c #0B0B0B",
"O  c #150000",
"+  c #1A0000",
"@  c #130C05",
"#  c #1C0D02",
"$  c #170E08",
"%  c #180F09",
"&  c #141106",
"*  c #1C140A",
"=  c #181104",
"-  c #131313",
";  c #1C1C1C",
":  c #1B1A1A",
">  c #0C1212",
",  c #250000",
"<  c #350000",
"1  c #3D0000",
"2  c #23160C",
"3  c #241A0D",
"4  c #291B0E",
"5  c #261602",
"6  c #361717",
"7  c #351B13",
"8  c #292506",
"9  c #30290D",
"0  c #3F3F00",
"q  c #2D2212",
"w  c #332512",
"e  c #3B2B14",
"r  c #352712",
"t  c #242424",
"y  c #2B2B2B",
"u  c #262A2A",
"i  c #2F3030",
"p  c #333333",
"a  c #3B3B3B",
"s  c #460000",
"d  c #4B0101",
"f  c #550000",
"g  c #5B0000",
"h  c #451F05",
"j  c #4A1919",
"k  c #6B0000",
"l  c #640000",
"z  c #720000",
"x  c #7B0602",
"c  c #721010",
"v  c #442100",
"b  c #47290A",
"n  c #592D06",
"m  c #5B350E",
"M  c #412D16",
"N  c #4A2F19",
"B  c #442C1A",
"V  c #4A341C",
"C  c #4E391D",
"Z  c #46341B",
"A  c #5C3B1D",
"S  c #503B1E",
"D  c #622E00",
"F  c #683908",
"G  c #653C13",
"H  c #573D22",
"J  c #4D3535",
"K  c #5F3030",
"L  c #402929",
"P  c #643F24",
"I  c #673131",
"U  c #5D431D",
"Y  c #4E4A06",
"T  c #674517",
"R  c #744311",
"E  c #70411F",
"W  c #7B5D17",
"Q  c #6E5211",
"!  c #594222",
"~  c #5A4822",
"^  c #4A423E",
"/  c #6A4622",
"(  c #774C2A",
")  c #434343",
"_  c #4C4C4C",
"`  c #4F5050",
"'  c #545454",
"]  c #5B5B5B",
"[  c #5E5851",
"{  c #665A55",
"}  c #705954",
"|  c #6B655D",
" . c #626262",
".. c #6C6C6C",
"X. c #747474",
"o. c #7C7C7C",
"O. c #757979",
"+. c #830000",
"@. c #820904",
"#. c #940000",
"$. c #9B0101",
"%. c #9E0906",
"&. c #851616",
"*. c #981C1C",
"=. c #A40000",
"-. c #AB0101",
";. c #B40000",
":. c #BB0000",
">. c #BB0906",
",. c #B60C0B",
"<. c #AC1413",
"1. c #8E2400",
"2. c #8E2626",
"3. c #B12121",
"4. c #A82525",
"5. c #C10000",
"6. c #CA0101",
"7. c #C80604",
"8. c #D40101",
"9. c #DD0101",
"0. c #DC0C0D",
"q. c #DB1212",
"w. c #D31300",
"e. c #E30000",
"r. c #EC0000",
"t. c #E10E0E",
"y. c #F00000",
"u. c #ED1919",
"i. c #CE3E05",
"p. c #F8211A",
"a. c #FD2021",
"s. c #F52626",
"d. c #8A4A09",
"f. c #934B07",
"g. c #985708",
"h. c #864B13",
"j. c #924E13",
"k. c #995616",
"l. c #A84F04",
"z. c #A05713",
"x. c #A35914",
"c. c #A85B15",
"v. c #B25909",
"b. c #946E17",
"n. c #8E6D0F",
"m. c #BE7B11",
"M. c #845828",
"N. c #955B24",
"B. c #8B5934",
"V. c #915D37",
"C. c #B84B24",
"Z. c #926929",
"A. c #98682C",
"S. c #9B6734",
"D. c #A67F30",
"F. c #AB6D2E",
"G. c #C25C01",
"H. c #DC4B00",
"J. c #CA670A",
"K. c #D96900",
"L. c #D36708",
"P. c #DE710E",
"I. c #C96B12",
"U. c #DA7417",
"Y. c #C77911",
"T. c #E67919",
"R. c #DF6028",
"E. c #DA7D25",
"W. c #E17E34",
"Q. c #F44C36",
"!. c #8F5656",
"~. c #935858",
"^. c #9D4D4D",
"/. c #A96C41",
"(. c #CB7C46",
"). c #9E9303",
"_. c #98880C",
"`. c #A58A03",
"'. c #BE9F0E",
"]. c #B69515",
"[. c #AB9B07",
"{. c #B1A608",
"}. c #928027",
"|. c #AA8331",
" X c #C78C05",
".X c #D48B0A",
"XX c #E69E07",
"oX c #E79A15",
"OX c #F68E01",
"+X c #D9B402",
"@X c #D8B80F",
"#X c #CFA80B",
"$X c #EEAF01",
"%X c #EEBF13",
"&X c #EEB412",
"*X c #CE992A",
"=X c #D0913C",
"-X c #F78926",
";X c #F38F39",
":X c #F19039",
">X c #F89039",
",X c #ED9329",
"<X c #F5AF2D",
"1X c #E9B62D",
"2X c #CBA92A",
"3X c #E4DB00",
"4X c #EAD40C",
"5X c #958D40",
"6X c #AE9650",
"7X c #DC9A40",
"8X c #EEB15E",
"9X c #EFE049",
"0X c #F4F04F",
"qX c #F2D04D",
"wX c #7E8080",
"eX c #828282",
"rX c #868686",
"tX c #848484",
"yX c #8B8B8B",
"uX c #878E8E",
"iX c #939393",
"pX c #9A9B9B",
"aX c #979999",
"sX c #A8AAAA",
/* pixels */
"p p a p p p a p t y y y y y y y y p J ) J ) ) ) ) ) J ) ) ) ) a i u u y y i y y i y ) ) ) _ ) ) ) i ",
"............' _ : : y y i _ ' ' i _ O.wXtXtXwXwXtXwXtXrXwXwXwX] a p ' ' ) i y y y y O.yXwXwXeXeXX.; ",
"iXtXO.....] J ; - u y y ] o.o.X._ a ..rXtXO.o.O.O.O.o.O.o.O...) p ..uXuXeX' y t y y _  .] ]  .{ ' - ",
"rX..' ' a - > t a _ ' ) X.X.....` u _ wXO.] ' ] ] ' ] ' ] ' ` a ] o.X.O.O.] t _ ) y y a ` ' ` ' _ - ",
"tX] ` ) - o t _ ..rXrX .y a ] ' _ ) ;  ...] ' ' ' ' ' ' ' ' ) a O.] ' ] _ ; ' eX..) t y ) ` ' ' _ > ",
"o.` _ - o t _ O.tXX.....' ; a _ ` _ p a ..' _ _ _ _ ' _ _ _ p ] O.' ' a : ` wX .' ' ) t t ) ` ' _ > ",
"wX` a o ; ) X.wX..' ' ] ..) : a _ ) a t p p p i p p p p p p : `  .' ) ; _ eX..' ' ' ' p - ; a ) ) - ",
".._ : o a p _ X.] ' ' ' ]  .) : y u t -       o             > t i _ u ] ~...' ' ' ' ' ) t o ; t - o ",
"a y - ) O...y a ' ] ' ' ' ' ' y :                               . : p ..X.` ' ' ' _ p ; y ; ; t y y ",
"y t u X.eXwX..) t ) ` _ _ y - -                                   . > : )  .' ' p : y ` X. .a t t i ",
"y y _ o...] O.o.] u u p p o                                               ) ) t u ' o.X.{ ] ` i ; y ",
"y p ..o.' ' ' { wXo.u @ -                                                 - > u o.tX..' ' ' ] a ; y ",
"y a O.o.' ' ' ' ] ..)                                         3 7           - ' rXo.] ' ' ' ' a t y ",
"y _ o.X.' ' ' ` _ a -         4 n.).d.4     2 f.`.5XA =     4 x.].B         o a o.o. .' ' ' ' _ t y ",
"y a a p ) ) ) _ _ p .       v  X*XA.M X   o N.&XXXM.U Q 4   . A b.].M         t  .O.] _ ) p p t t y ",
"y ) _ a y p y t t o       .  X*XB.$       . M.8X2XS.|.g.E   X . o b. X#       o y y t a a i p u ; ; ",
"a O.yXX.X... .a o         F @XV.$   $ N $   m 1XD.( 7   2   3 $   b .XQ *         t ' X.o.O.X. .p ; ",
"a O.o. .]  . ...y         `..X/     4 P $   n OXF.B.( 5     4 @ X V Y.#Xw     o y ] yXO...] ' _ t ; ",
"a X.o.' ' ' ' ' y         ).Z.e     % A.S.Q F.4X4X1X7X( 2 M V X w C I.+X9     o p  .rX..' ' ' ) t ; ",
"a X.O.] ' ' ' ) ;         ).A.B     o P F.9X0X3X3X3X1XS.Z N o   9 C I.+X9       p  .o...` ` _ a t t ",
"a X..._ _ _ _ ) ;         ).Z.q $ .   @ Z 6XqXoX<X<X,XN.e       w C I.+X9     o p ' ' ) p i p i t ; ",
"i _ a y y t t t -         ).Z.8 * &       / >XT.>X>XU.F $     . e T J.+X9       $ ; ; ; ; ; ; - - t ",
"i _ ) ) p p p y -         ).Z.* X 3       T T.G.G.G.l.d.#       e R K.+X9     o p ] eXwXwXo.o. .p ; ",
"a wXwX~.o.eXo.] t         ).Z.q r $       G L.R R R h.h.@     * n z.P.+X9     . p  .rX.. . . ._ y ; ",
"a O.O. .] ] ] ) :         g. Xr N 2       A L.F C T g.f.#     e z.(.-X7X7     : p  .tX..` ' ' ) t ; ",
"a O.O.] ' ' ' ) :         = {.M N C       T c.v 3 e R l.#     @ F.W.$XW *     ; p  .tX..' ' ' a t ; ",
"p O.O.' ' ' ' ) :         X  Xn.w V .     N.K.v   o F K.5     X (.-XoX8       t a  .wX..' ` ` ) t ; ",
"a O..._ ` _ _ ) :           F ].N w       / E.9     D XX5     @ T.OXW .       - p _ ' ) p p p p t ; ",
"p ` a u u u u t -           5 v./ * X   o Q #Xb   & n.%X0     @ .X].5           > : ; : : : : - - t ",
"i a ) ) i y i y -           . n R Z *   Y [.3X_.Q Z.1X4X[.m   X _.w .         ; a  .eXo.wXwXO...p ; ",
"a O.wXwXwXwX~...u               $ 4 * G I.C.P.I.H.R.H.K.l.1.  . 3           o t a  .tX.. . . .' y ; ",
"a O.wX .] ] ] _ :                 + <.Q.a.0.7.7.:.;.7.7.w.-.<               - y a  .rX..' ' ' J t ; ",
"a O.O.' ' ' ' ) ;               + ,.a.9.=.+.k f f f l #.;.7.=.<             - y a  .tX..' ' ' a t ; ",
"p O.O.' ` ' ` ) :             + <.a.9.4.!.I , y ' ` { !.^.3.7.$.,           - y a  .rX..' ' ' ) t ; ",
"p  ._ p p p p p :             f s.t.=.~.sX)   ..sXaXiXaXuXK ;.5.z O           t a  .o...` _ _ a t ; ",
"i p i i u : : : o           O <.a.7.@.~.iXt   ..yXp y y u 6 -.6.$.1           o y ) _ y y u y y t ; ",
"p X.wXwXo.o.o. .u           , q.q.-.f } iXt   ..yX:       O $.8.;.g O         o > t u u y p i u ; t ",
"a X.o. . . .] _ :           , 9.9.$.s ] aX..] aXyX[ ] ] ] t &.0.:.k O         ; )  .uXwX~.wXwX .p ; ",
"a X..._ _ _ _ ) ;           , 9.9.#.s ] iXyXiXyXeXeXyXiXtXu &.q.:.z O         t a  .wX..] ] ] ) t ; ",
"p _ p u t t t t -           , 6.9.#.s p a t ;  .wXi t ..X.> 2.q.:.k +         ; a ] wX ._ ) _ a t t ",
"y ) _ _ a p p p -           + ;.8.=.f .       ..yX;   o.tX; *.t.:.f .           ; u y : : : : : : ; ",
"a X.eXo.o.eXo. .t             l 8.:.k I X.X.X.pXyX;   o.~.6 -.7.=.1           - t a ` ' ` ' ` ) u ; ",
"a X.o.] ] ] ] ) :             , -.6.%.~.pXtXrXtXX.;   o.wXi ;.5.k ,           t )  .rXO.O.O.X.] p ; ",
"a O.X.' _ ' ' ) :               d ;.7.2.J 6 t : ; >   J L c 6.$.s             t a  .tX..' ' ' a t ; ",
"a ..' a a a a a :             . & d ;.5.=.#.+.g g g z -.-.6.-.d * X           t a  .rX .' ' _ a t ; ",
"y p y t - - - - o             X 9 3 d -.6.9.9.e.r.r.r.9.8.$.d 2 r &           o p _ ' p p y p p t ; ",
"a X.X.X.....X.] t     @ 8 8 q C U U C 7 x %.>.>.>.>.>.%.@.h H U ! V w 4 @       > ; t ; ; ; ; : : ; ",
"J tX..' ' ' ' _ ;     Y 3X,X:X:X;X;X;XT.x.j.j.j.j.j.j.j.k.P.:X:X:X:X:X:XF     t a  .rXo.X.X.X.] i : ",
"a .._ p a a p p t o o ~ *Xj.x.x.z.z.z.x.z.z.x.x.x.x.x.x.x.x.z.z.k.z.z.k.H ; - - p ' ..) a a p a y u ",
") _ ) ) ) a ) ) p ; u ^ [ [ { | | | | | | | | | | | | | | | | | | | | { { ' ^ y ) ) ) ) ) ) ) a ) ) "
};
